<svg fill="#FFC239" id="Layer_5" enable-background="new 0 0 64 64" height="512" viewBox="0 0 64 64" width="512" xmlns="http://www.w3.org/2000/svg"><g><path d="m22 34h6c.044 0 .086.012.13.013l-1.513-1.891c-1.637.382-3.205 1.022-4.647 1.88.011.001.02-.002.03-.002z"/><path d="m34 49.775v-15.924l-2.248 2.809c.151.421.248.868.248 1.34v11c.77 0 1.468.297 2 .775z"/><path d="m28 36c-1.103 0-2 .897-2 2v1h-2v-1c0-.728.195-1.411.537-2h-2.537c-1.103 0-2 .897-2 2s.897 2 2 2h6c1.103 0 2-.897 2-2s-.897-2-2-2z"/><path d="m22 42c-.732 0-1.409-.212-2-.556v8.611c1.231.611 2.6.945 4 .945h3.586l1.121-1.121c.364-.365.811-.61 1.293-.749v-7.686c-.591.344-1.268.556-2 .556z"/><path d="m21 18.556c.591-.344 1.268-.556 2-.556v-1h-2z"/><path d="m39 24c1.103 0 2-.897 2-2s-.897-2-2-2z"/><path d="m32 3.05c-.329-.032-.662-.05-1-.05s-.671.018-1 .05v7.95h2z"/><path d="m34 3.458v7.542h6.796c-.726-3.628-3.361-6.478-6.796-7.542z"/><path d="m28 3.458c-3.435 1.064-6.07 3.914-6.796 7.542h6.796z"/><path d="m43 15v-2h-24-.001l.001 2z"/><path d="m41 17h-2v1c.732 0 1.409.212 2 .556z"/><path d="m31.444 61h2.556v-2h-2c0 .732-.212 1.409-.556 2z"/><path d="m36 54c0-.551-.448-1-1-1h-2v-1c0-.551-.448-1-1-1h-1.172c-.263 0-.521.107-.707.293l-1.121 1.121v4.586h6c.552 0 1-.449 1-1z"/><path d="m23 24v-4c-1.103 0-2 .897-2 2s.897 2 2 2z"/><path d="m49.993 47.117-1.986-.233.453-3.854-.151-.331c-2.34-5.147-6.886-8.975-12.31-10.435v18.921c1.161.414 2 1.514 2 2.816v2c0 1.302-.839 2.402-2 2.816v2.183h6v-19h2v3.764l1.016 2.031c.989 1.977 2.976 3.205 5.186 3.205 3.197 0 5.799-2.601 5.799-5.798v-14.202h-4.111z"/><path d="m55 22h-2c-.552 0-1 .449-1 1v2h-1c-.552 0-1 .449-1 1v1.171c0 .267.104.519.293.708l1.121 1.121h4.586v-6c0-.551-.448-1-1-1z"/><path d="m20 58.574v.426c0 1.103.897 2 2 2h3 3c1.103 0 2-.897 2-2h-7c-1.041 0-2.045-.155-3-.426z"/><path d="m27 57v-4h-3c-3.443 0-6.733-1.645-8.8-4.4l1.6-1.2c.356.474.764.898 1.2 1.288v-1.291l-3.124-4.679c-.581 1.693-.876 3.463-.876 5.282 0 4.962 4.037 9 9 9z"/><path d="m37 24v-7h-12v7c0 1.654 1.346 3 3 3h6c1.654 0 3-1.346 3-3z"/><path d="m33.879 30.8-.6-1.8h-4.559l-.6 1.8 2.88 3.599z"/><path d="m18 38c0-.842.264-1.621.71-2.266l-1.903-5.909c-.93.912-2.325 1.622-3.932 1.962-.677.144-1.34.212-1.97.212-.277 0-.546-.017-.809-.043l7.904 11.838z"/><path d="m12.459 29.831c1.5-.318 2.808-1.061 3.334-1.891.158-.251.212-.477.188-.682l-.098-.304c-.328-.511-1.336-.96-2.751-.96-.485 0-1.02.053-1.591.174-1.5.318-2.808 1.061-3.334 1.891-.178.282-.242.538-.189.76.007.03.032.058.044.088l.196.294c.578.612 2.137 1.067 4.201.63z"/></g></svg>