<svg fill="#C74231" height="512" viewBox="0 0 64 64" width="512" xmlns="http://www.w3.org/2000/svg"><g id="Bank-money-grow-coins-financail"><path d="m51 38h2v10h-2z"/><path d="m49 52h6v-1a1 1 0 0 0 -1-1h-4a1 1 0 0 0 -1 1z"/><path d="m35 52h6v-1a1 1 0 0 0 -1-1h-4a1 1 0 0 0 -1 1z"/><path d="m43 34v1a3.01 3.01 0 0 1 -2 2.82v10.36a3.01 3.01 0 0 1 2 2.82v1h4v-1a3.01 3.01 0 0 1 2-2.82v-10.36a3.01 3.01 0 0 1 -2-2.82v-1z"/><path d="m35 35a1 1 0 0 0 1 1h4a1 1 0 0 0 1-1v-1h-6z"/><path d="m37 38h2v10h-2z"/><path d="m55 35v-1h-6v1a1 1 0 0 0 1 1h4a1 1 0 0 0 1-1z"/><path d="m18.09 54.61a1.013 1.013 0 0 0 -.09.39v1h40v-1a1 1 0 0 0 -1-1h-37.01a12.374 12.374 0 0 1 -1.9.61z"/><path d="m25.23 34a12.967 12.967 0 0 1 -1.93 18h9.7v-1a3.01 3.01 0 0 1 2-2.82v-10.36a3.01 3.01 0 0 1 -2-2.82v-1z"/><circle cx="38" cy="23" r="1"/><path d="m59 58h-42a1 1 0 0 0 -1 1v1h44v-1a1 1 0 0 0 -1-1z"/><path d="m26 42a11 11 0 1 0 -11 11 11.007 11.007 0 0 0 11-11zm-11-1a3.992 3.992 0 0 1 1 7.858v2.142h-2v-2.142a4 4 0 0 1 -3-3.858h2a2 2 0 1 0 2-2 3.992 3.992 0 0 1 -1-7.858v-2.142h2v2.142a4 4 0 0 1 3 3.858h-2a2 2 0 1 0 -2 2z"/><path d="m58 30h-38.01a13.106 13.106 0 0 1 3.31 2h33.7a1 1 0 0 0 1-1z"/><path d="m57.43 28-19.43-11.83-19.43 11.83zm-10.43-4h2v2h-2zm-4 0h2v2h-2zm-5-4a3 3 0 1 1 -3 3 3 3 0 0 1 3-3zm-7 4h2v2h-2zm-2 0v2h-2v-2z"/><path d="m9 13h-6a6 6 0 0 0 6 6h5v10.05a8.269 8.269 0 0 1 1-.05 8.269 8.269 0 0 1 1 .05v-10.05h5a6 6 0 0 0 6-6h-6a5.993 5.993 0 0 0 -5 2.686v-6.686h5a6 6 0 0 0 6-6h-6a6 6 0 0 0 -5.651 4h-.7a6 6 0 0 0 -5.649-4h-6a6 6 0 0 0 6 6h5v6.686a5.993 5.993 0 0 0 -5-2.686z"/><path d="m57.707 2.293a1 1 0 0 0 -1.414 0l-4 4 1.414 1.414 2.293-2.293v11.586h2v-11.586l2.293 2.293 1.414-1.414z"/><path d="m44 5.414v5.586h2v-5.586l2.293 2.293 1.414-1.414-4-4a1 1 0 0 0 -1.414 0l-4 4 1.414 1.414z"/><path d="m44 13h2v2h-2z"/><path d="m56 19h2v2h-2z"/></g></svg>