<svg fill="#FFC239" id="Layer_1" enable-background="new 0 0 512 512" height="512" viewBox="0 0 512 512" width="512" xmlns="http://www.w3.org/2000/svg"><path d="m453.257 276.8c32.391 0 58.743-26.352 58.743-58.742v-22.076c0-8.284-6.716-15-15-15h-22.076c-17.36 0-32.979 7.575-43.743 19.587-10.763-12.012-26.383-19.587-43.743-19.587h-22.076c-8.284 0-15 6.716-15 15v22.076c0 32.391 26.352 58.742 58.742 58.742h7.076v43.709c9.902-1.505 19.907-2.728 30-3.672v-40.037z"/><path d="m45.125 150.577h90.375c24.882 0 45.125-20.243 45.125-45.125s-20.243-45.125-45.125-45.125h-17.688c-6.196-17.53-22.936-30.125-42.562-30.125-20.34 0-37.579 13.524-43.195 32.055-18.531 5.616-32.055 22.855-32.055 43.195 0 24.882 20.243 45.125 45.125 45.125z"/><circle cx="436.75" cy="60.265" r="60.188"/><path d="m278.228 159.555c2.929 2.929 6.768 4.394 10.606 4.394s7.678-1.465 10.606-4.394l30.125-30.125c5.858-5.857 5.858-15.355 0-21.213-5.857-5.857-15.355-5.857-21.213 0l-19.519 19.519-19.519-19.519c-5.857-5.857-15.355-5.857-21.213 0s-5.858 15.355 0 21.213z"/><path d="m155.019 183.529c-5.858 5.857-5.858 15.355 0 21.213l30.125 30.125c2.929 2.929 6.768 4.394 10.606 4.394s7.678-1.465 10.606-4.394l30.125-30.125c5.858-5.857 5.858-15.355 0-21.213-5.857-5.857-15.355-5.857-21.213 0l-19.519 19.519-19.519-19.519c-5.856-5.857-15.354-5.857-21.211 0z"/><path d="m374.467 411.516c38.964-18.534 83.275-29.122 129.808-30.995v-20.123c0-8.635-7.275-15.512-15.893-14.981-57.742 3.557-112.505 16.984-160.347 38.161 14.945 10.059 30.221 19.541 46.432 27.938z"/><path d="m504.275 445.8v-35.248c-32.439 1.469-63.524 7.673-91.658 17.743 26.782 9.675 56.66 16.079 91.658 17.505z"/><path d="m73.544 476.104h35.818v35.818h-35.818z"/><path d="m43.544 476.104h-35.819v20.818c0 8.284 6.716 15 15 15h20.819z"/><path d="m205.181 476.104h35.819v35.818h-35.819z"/><path d="m139.362 476.104h35.819v35.818h-35.819z"/><path d="m272.538 381.199c-64.343-46.297-130.697-94.049-248.886-101.173-8.631-.52-15.927 6.33-15.927 14.977v151.101h35.819v-17.72c0-8.077 6.207-15.027 14.275-15.407 8.614-.406 15.725 6.458 15.725 14.983v18.144h35.818v-17.72c0-8.077 6.207-15.027 14.275-15.407 8.614-.406 15.725 6.458 15.725 14.983v18.144h35.819v-17.72c0-8.077 6.207-15.027 14.275-15.407 8.614-.406 15.725 6.458 15.725 14.983v18.144h35.819v-17.72c0-8.077 6.207-15.027 14.275-15.407 8.614-.406 15.725 6.458 15.725 14.983v18.144h9.702c8.077 0 15.027 6.207 15.407 14.275.406 8.614-6.458 15.725-14.983 15.725h-10.126v35.818h218.275c8.284 0 15-6.716 15-15v-21.098c-45.688-1.723-87.357-11.414-126.961-29.482-38.915-17.753-72.397-41.845-104.776-65.143z"/></svg>