<svg fill="#FFC239" id="_x33_0" enable-background="new 0 0 64 64" height="512" viewBox="0 0 64 64" width="512" xmlns="http://www.w3.org/2000/svg"><g><path d="m32 57c-1.778 0-3.324 1.196-3.823 2.857 1.101.72 2.413 1.143 3.823 1.143s2.722-.423 3.823-1.143c-.499-1.661-2.045-2.857-3.823-2.857z"/><path d="m32 47c-3.859 0-7 3.14-7 7 0 1.686.6 3.235 1.597 4.445.544-1.141 1.427-2.078 2.522-2.684-.69-.718-1.119-1.689-1.119-2.761 0-2.206 1.794-4 4-4s4 1.794 4 4c0 1.072-.429 2.043-1.119 2.762 1.095.606 1.977 1.542 2.522 2.684.997-1.211 1.597-2.76 1.597-4.446 0-3.86-3.141-7-7-7z"/><circle cx="32" cy="53" r="2"/><path d="m17.49 24.672c-1.07.643-1.876 1.647-2.27 2.83l-.22.66v12.838h17c.552 0 1-.449 1-1s-.448-1-1-1h-5v-2h7c.552 0 1-.448 1-1s-.448-1-1-1h-7v-2h7c.552 0 1-.448 1-1s-.448-1-1-1h-7v-2h7c.552 0 1-.448 1-1s-.448-1-.999-1h-5.001c-2.206 0-4-1.794-4-4v-5c0-1.654-1.346-3-3-3-.551 0-1 .449-1 1v2.472c0 2.526-1.345 4.901-3.51 6.2z"/><path d="m13 28.92-10-.833v12.913h10z"/><path d="m32 3c-3.859 0-7 3.14-7 7s3.141 7 7 7 7-3.14 7-7-3.141-7-7-7zm-3 8h-2v-2h2zm4 0h-2v-2h2zm4 0h-2v-2h2z"/><path d="m54 25c-3.859 0-7 3.14-7 7s3.141 7 7 7 7-3.14 7-7-3.141-7-7-7zm-5 10v-4h2v2h2v-6h2v6h2v-4h2v6z"/><path d="m53.152 18.531 1.336 2.129 1.492-7.464-1.961-.393-.536 2.683c-2.584-3.42-5.83-5.979-10.06-7.958l-.847 1.812c4.646 2.173 8.007 5.094 10.576 9.191z"/><path d="m7.528 20.577 1.813.847c2.171-4.644 5.092-8.005 9.19-10.576l2.128-1.335-7.463-1.493-.392 1.96 2.683.537c-3.422 2.585-5.981 5.831-7.959 10.06z"/><path d="m10.848 45.469-1.336-2.129-1.492 7.464 1.961.393.536-2.683c2.584 3.42 5.83 5.979 10.06 7.958l.848-1.812c-4.647-2.173-8.008-5.094-10.577-9.191z"/><path d="m56.472 43.423-1.813-.847c-2.171 4.644-5.092 8.005-9.19 10.576l-2.128 1.335 7.463 1.493.393-1.961-2.683-.537c3.421-2.584 5.98-5.83 7.958-10.059z"/></g></svg>