<svg xmlns="http://www.w3.org/2000/svg" xmlns:xlink="http://www.w3.org/1999/xlink" width="19" height="19" viewBox="0 0 19 19">
  <defs>
    <linearGradient id="linear-gradient" x1="0.5" x2="0.5" y2="1" gradientUnits="objectBoundingBox">
      <stop offset="0" stop-color="#eb7f71"/>
      <stop offset="1" stop-color="#c74231"/>
    </linearGradient>
  </defs>
  <g id="location" transform="translate(-1140 -4251)">
    <circle id="Ellipse_5" data-name="Ellipse 5" cx="9.5" cy="9.5" r="9.5" transform="translate(1140 4251)" fill="url(#linear-gradient)"/>
    <path id="Icon_awesome-instagram" data-name="Icon awesome-instagram" d="M5.6,4.967A2.872,2.872,0,1,0,8.47,7.839,2.868,2.868,0,0,0,5.6,4.967Zm0,4.739A1.867,1.867,0,1,1,7.466,7.839,1.871,1.871,0,0,1,5.6,9.706Zm3.66-4.857a.67.67,0,1,1-.67-.67A.668.668,0,0,1,9.258,4.849Zm1.9.68a3.315,3.315,0,0,0-.9-2.347,3.337,3.337,0,0,0-2.347-.9c-.925-.052-3.7-.052-4.622,0a3.332,3.332,0,0,0-2.347.9,3.326,3.326,0,0,0-.9,2.347c-.052.925-.052,3.7,0,4.622a3.315,3.315,0,0,0,.9,2.347,3.341,3.341,0,0,0,2.347.9c.925.052,3.7.052,4.622,0a3.315,3.315,0,0,0,2.347-.9,3.337,3.337,0,0,0,.9-2.347c.052-.925.052-3.694,0-4.619ZM9.965,11.141A1.89,1.89,0,0,1,8.9,12.206a12.346,12.346,0,0,1-3.3.225,12.442,12.442,0,0,1-3.3-.225,1.89,1.89,0,0,1-1.065-1.065,12.346,12.346,0,0,1-.225-3.3,12.442,12.442,0,0,1,.225-3.3A1.89,1.89,0,0,1,2.3,3.472a12.346,12.346,0,0,1,3.3-.225,12.442,12.442,0,0,1,3.3.225A1.89,1.89,0,0,1,9.965,4.537a12.346,12.346,0,0,1,.225,3.3A12.339,12.339,0,0,1,9.965,11.141Z" transform="translate(1144.057 4252.507)" fill="#fff"/>
  </g>
</svg>
