<svg xmlns="http://www.w3.org/2000/svg" xmlns:xlink="http://www.w3.org/1999/xlink" width="19" height="19" viewBox="0 0 19 19">
  <defs>
    <linearGradient id="linear-gradient" x1="0.5" x2="0.5" y2="1" gradientUnits="objectBoundingBox">
      <stop offset="0" stop-color="#eb7f71"/>
      <stop offset="1" stop-color="#c74231"/>
    </linearGradient>
  </defs>
  <g id="email" transform="translate(-1140 -4251)">
    <circle id="Ellipse_5" data-name="Ellipse 5" cx="9.5" cy="9.5" r="9.5" transform="translate(1140 4251)" fill="url(#linear-gradient)"/>
    <path id="Icon_awesome-linkedin-in" data-name="Icon awesome-linkedin-in" d="M2.291,10.235H.169V3.4H2.291ZM1.229,2.47A1.235,1.235,0,1,1,2.458,1.23,1.239,1.239,0,0,1,1.229,2.47Zm9,7.765H8.115V6.909c0-.793-.016-1.809-1.1-1.809-1.1,0-1.272.861-1.272,1.752v3.383H3.62V3.4H5.655v.932h.03a2.23,2.23,0,0,1,2.008-1.1c2.147,0,2.542,1.414,2.542,3.251v3.754Z" transform="translate(1144 4255)" fill="#fff"/>
  </g>
</svg>
