<svg xmlns="http://www.w3.org/2000/svg" width="54.608" height="53.802" viewBox="0 0 54.608 53.802">
  <g id="planting_1_" data-name="planting (1)" transform="translate(-4.75 -6.5)">
    <path id="Path_506" data-name="Path 506" d="M28.539,18.591c1.475-3.776,3.835-4.7,6.3-3.921-.219,4.387-4.723,4.538-6.3,3.921Z" transform="translate(-12.826 -4.268)" fill="#bae543"/>
    <path id="Path_507" data-name="Path 507" d="M21.167,10.675c-1.475-3.776-3.835-4.7-6.3-3.921C15.085,11.141,19.59,11.293,21.167,10.675Z" transform="translate(-5.455 0)" fill="#bae543"/>
    <path id="Path_508" data-name="Path 508" d="M27.6,23.9a.806.806,0,0,1-.806-.806V8.005a.806.806,0,0,1,1.613,0V23.1a.806.806,0,0,1-.806.806Z" transform="translate(-11.883 -0.377)" fill="#a5cc2a"/>
    <path id="Path_509" data-name="Path 509" d="M23.883,42.638H13.613a4.578,4.578,0,0,1,4.381-3.248h1.512A4.578,4.578,0,0,1,23.883,42.638Z" transform="translate(-4.779 -17.733)" fill="#ffc239"/>
    <path id="Path_510" data-name="Path 510" d="M31.447,42.638H21.175a4.578,4.578,0,0,1,4.381-3.248h1.511a4.578,4.578,0,0,1,4.381,3.248Z" transform="translate(-8.856 -17.733)" fill="#ffc239"/>
    <path id="Path_511" data-name="Path 511" d="M64,18.591c1.475-3.776,3.835-4.7,6.3-3.921C70.083,19.057,65.577,19.208,64,18.591Z" transform="translate(-31.946 -4.268)" fill="#bae543"/>
    <path id="Path_512" data-name="Path 512" d="M56.628,10.675c-1.475-3.776-3.835-4.7-6.3-3.921C50.546,11.141,55.051,11.293,56.628,10.675Z" transform="translate(-24.574 0)" fill="#bae543"/>
    <path id="Path_513" data-name="Path 513" d="M63.056,23.9a.806.806,0,0,1-.806-.806V8.005a.806.806,0,1,1,1.613,0V23.1a.806.806,0,0,1-.806.806Z" transform="translate(-31.002 -0.377)" fill="#a5cc2a"/>
    <path id="Path_514" data-name="Path 514" d="M59.346,42.638H49.074a4.578,4.578,0,0,1,4.381-3.248h1.51a4.578,4.578,0,0,1,4.381,3.249Z" transform="translate(-23.898 -17.733)" fill="#ffc239"/>
    <path id="Path_515" data-name="Path 515" d="M66.908,42.638H56.636a4.578,4.578,0,0,1,4.381-3.248h1.51a4.578,4.578,0,0,1,4.381,3.248Z" transform="translate(-27.976 -17.733)" fill="#ffc239"/>
    <path id="Path_516" data-name="Path 516" d="M99.461,18.591c1.475-3.776,3.835-4.7,6.3-3.921C105.543,19.057,101.038,19.208,99.461,18.591Z" transform="translate(-51.066 -4.268)" fill="#bae543"/>
    <path id="Path_517" data-name="Path 517" d="M92.089,10.675c-1.474-3.776-3.835-4.7-6.3-3.921C86.008,11.141,90.512,11.293,92.089,10.675Z" transform="translate(-43.694 0)" fill="#bae543"/>
    <path id="Path_518" data-name="Path 518" d="M98.517,23.9a.806.806,0,0,1-.806-.806V8.005a.806.806,0,0,1,1.613,0V23.1a.806.806,0,0,1-.806.806Z" transform="translate(-50.122 -0.377)" fill="#a5cc2a"/>
    <path id="Path_519" data-name="Path 519" d="M94.807,42.638H84.535a4.578,4.578,0,0,1,4.381-3.248h1.511a4.578,4.578,0,0,1,4.381,3.248Z" transform="translate(-43.018 -17.733)" fill="#ffc239"/>
    <path id="Path_520" data-name="Path 520" d="M102.37,42.638H92.1a4.578,4.578,0,0,1,4.378-3.248h1.51a4.578,4.578,0,0,1,4.381,3.248Z" transform="translate(-47.097 -17.733)" fill="#ffc239"/>
    <path id="Path_521" data-name="Path 521" d="M46.269,93.653c1.475-3.776,3.835-4.7,6.3-3.921C52.351,94.119,47.846,94.269,46.269,93.653Z" transform="translate(-22.386 -44.739)" fill="#bae543"/>
    <path id="Path_522" data-name="Path 522" d="M38.9,85.736c-1.475-3.776-3.835-4.7-6.3-3.921C32.816,86.2,37.32,86.352,38.9,85.736Z" transform="translate(-15.014 -40.471)" fill="#bae543"/>
    <path id="Path_523" data-name="Path 523" d="M45.326,98.966a.806.806,0,0,1-.806-.806V83.067a.806.806,0,0,1,1.613,0V98.16A.806.806,0,0,1,45.326,98.966Z" transform="translate(-21.443 -40.848)" fill="#a5cc2a"/>
    <path id="Path_524" data-name="Path 524" d="M41.615,117.7H31.343a4.578,4.578,0,0,1,4.381-3.248h1.511a4.578,4.578,0,0,1,4.381,3.248Z" transform="translate(-14.338 -58.205)" fill="#ffc239"/>
    <path id="Path_525" data-name="Path 525" d="M49.18,117.7H38.906a4.578,4.578,0,0,1,4.381-3.248H44.8A4.579,4.579,0,0,1,49.18,117.7Z" transform="translate(-18.416 -58.205)" fill="#ffc239"/>
    <path id="Path_526" data-name="Path 526" d="M81.731,93.653c1.475-3.776,3.835-4.7,6.3-3.921C87.813,94.119,83.308,94.269,81.731,93.653Z" transform="translate(-41.506 -44.739)" fill="#bae543"/>
    <path id="Path_527" data-name="Path 527" d="M74.359,85.736c-1.475-3.776-3.835-4.7-6.3-3.921C68.277,86.2,72.781,86.352,74.359,85.736Z" transform="translate(-34.134 -40.471)" fill="#bae543"/>
    <path id="Path_528" data-name="Path 528" d="M80.786,98.966a.806.806,0,0,1-.806-.806V83.067a.806.806,0,0,1,1.613,0V98.16a.806.806,0,0,1-.806.806Z" transform="translate(-40.562 -40.848)" fill="#a5cc2a"/>
    <path id="Path_529" data-name="Path 529" d="M77.074,117.7H66.8a4.579,4.579,0,0,1,4.381-3.248h1.51a4.578,4.578,0,0,1,4.381,3.248Z" transform="translate(-33.456 -58.205)" fill="#ffc239"/>
    <path id="Path_530" data-name="Path 530" d="M84.639,117.7H74.367a4.578,4.578,0,0,1,4.381-3.248h1.511a4.578,4.578,0,0,1,4.381,3.248Z" transform="translate(-37.536 -58.205)" fill="#ffc239"/>
    <g id="Group_92" data-name="Group 92" transform="translate(4.75 24.098)">
      <path id="Path_531" data-name="Path 531" d="M58.552,46.3h-53a.806.806,0,1,1,0-1.613h53a.806.806,0,1,1,0,1.613Z" transform="translate(-4.75 -44.688)" fill="#ffc239"/>
      <path id="Path_532" data-name="Path 532" d="M58.552,121.363h-53a.806.806,0,0,1,0-1.613h53a.806.806,0,1,1,0,1.613Z" transform="translate(-4.75 -85.159)" fill="#ffc239"/>
    </g>
  </g>
</svg>
