<svg xmlns="http://www.w3.org/2000/svg" xmlns:xlink="http://www.w3.org/1999/xlink" width="388" height="388" viewBox="0 0 388 388">
  <defs>
    <clipPath id="clip-path">
      <rect id="Rectangle_627" data-name="Rectangle 627" width="388" height="388" transform="translate(8734 956)" fill="#fff" stroke="#707070" stroke-width="1"/>
    </clipPath>
  </defs>
  <g id="Mask_Group_21" data-name="Mask Group 21" transform="translate(-8734 -956)" clip-path="url(#clip-path)">
    <g id="project" transform="translate(8734 956)">
      <g id="Group_93" data-name="Group 93">
        <path id="Path_545" data-name="Path 545" d="M332.115,366.472c-.647-.647-1.216-1.293-1.817-1.979C330.9,365.159,331.481,365.845,332.115,366.472Z" fill="#fddc92"/>
        <path id="Path_546" data-name="Path 546" d="M350.894,378.358c.841.31,1.675.647,2.535.905C352.569,379,351.734,378.668,350.894,378.358Z" fill="#fddc92"/>
        <path id="Path_547" data-name="Path 547" d="M355.776,379.864c.879.226,1.746.479,2.638.647C357.522,380.343,356.656,380.091,355.776,379.864Z" fill="#fddc92"/>
        <path id="Path_548" data-name="Path 548" d="M360.839,380.886c.912.142,1.817.3,2.748.394C362.65,381.19,361.745,381.028,360.839,380.886Z" fill="#fddc92"/>
        <path id="Path_549" data-name="Path 549" d="M346.238,376.4c.8.388,1.591.8,2.419,1.145C347.829,377.194,347.04,376.786,346.238,376.4Z" fill="#fddc92"/>
        <path id="Path_550" data-name="Path 550" d="M341.84,374.018c.75.459,1.487.938,2.263,1.352C343.328,374.956,342.591,374.478,341.84,374.018Z" fill="#fddc92"/>
        <path id="Path_551" data-name="Path 551" d="M319.944,347.259c.33.918.647,1.856,1.015,2.755C320.578,349.109,320.274,348.171,319.944,347.259Z" fill="#fddc92"/>
        <path id="Path_552" data-name="Path 552" d="M316.866,329.8a51.521,51.521,0,0,0,.272,5.309A51.521,51.521,0,0,1,316.866,329.8Z" fill="#fddc92"/>
        <path id="Path_553" data-name="Path 553" d="M318.457,342.325c.239.976.453,1.94.75,2.91C318.91,344.285,318.7,343.3,318.457,342.325Z" fill="#fddc92"/>
        <path id="Path_554" data-name="Path 554" d="M317.377,336.686c.162,1.2.31,2.406.55,3.576C317.687,339.092,317.513,337.889,317.377,336.686Z" fill="#fddc92"/>
        <path id="Path_555" data-name="Path 555" d="M333.835,368.037c.647.595,1.293,1.216,1.979,1.778C335.128,369.246,334.488,368.632,333.835,368.037Z" fill="#fddc92"/>
        <path id="Path_556" data-name="Path 556" d="M327.116,360.626c.543.731,1.061,1.481,1.643,2.179C328.176,362.133,327.659,361.357,327.116,360.626Z" fill="#fddc92"/>
        <path id="Path_557" data-name="Path 557" d="M324.329,356.474c.472.782.918,1.584,1.429,2.334C325.273,358.059,324.8,357.257,324.329,356.474Z" fill="#fddc92"/>
        <path id="Path_558" data-name="Path 558" d="M337.676,371.186c.711.537,1.4,1.086,2.14,1.584C339.079,372.292,338.387,371.742,337.676,371.186Z" fill="#fddc92"/>
        <path id="Path_559" data-name="Path 559" d="M321.91,351.974c.407.86.789,1.733,1.242,2.587C322.686,353.726,322.318,352.834,321.91,351.974Z" fill="#fddc92"/>
        <path id="Path_560" data-name="Path 560" d="M317.138,335.109c.052.537.168,1.054.239,1.578C317.306,336.163,317.19,335.62,317.138,335.109Z" fill="#fddc92"/>
        <path id="Path_561" data-name="Path 561" d="M353.429,379.263c.77.239,1.565.4,2.347.6C355.019,379.664,354.2,379.5,353.429,379.263Z" fill="#fddc92"/>
        <path id="Path_562" data-name="Path 562" d="M360.839,380.886c-.808-.116-1.623-.207-2.419-.369s-1.759-.427-2.638-.647-1.578-.362-2.347-.6-1.694-.595-2.535-.905-1.507-.511-2.237-.815-1.617-.757-2.419-1.145-1.442-.647-2.134-1.028-1.513-.892-2.263-1.352-1.371-.789-2.024-1.229-1.429-1.048-2.14-1.584-1.293-.9-1.862-1.39-1.293-1.183-1.979-1.778-1.17-1.015-1.72-1.565-1.216-1.293-1.817-1.979c-.511-.563-1.054-1.106-1.539-1.688-.582-.7-1.1-1.449-1.643-2.179-.446-.608-.931-1.19-1.358-1.817-.511-.75-.957-1.552-1.429-2.334-.388-.647-.815-1.293-1.177-1.94-.453-.834-.834-1.707-1.242-2.587-.317-.647-.647-1.293-.951-1.94-.382-.9-.685-1.837-1.015-2.755-.239-.647-.524-1.332-.737-2.018-.3-.951-.511-1.94-.75-2.91-.175-.685-.388-1.364-.53-2.063-.239-1.17-.388-2.373-.55-3.576-.071-.524-.188-1.041-.239-1.578a51.441,51.441,0,0,1-.278-5.316V316.866H32.333V329.8a51.733,51.733,0,0,0,51.733,51.733H368.6c-.854,0-1.681-.084-2.522-.129s-1.675-.045-2.5-.123c-.931-.091-1.837-.252-2.742-.395Z" fill="#fddc92"/>
        <path id="Path_563" data-name="Path 563" d="M358.414,380.517c.8.162,1.61.252,2.419.369C360.025,380.77,359.21,380.679,358.414,380.517Z" fill="#fddc92"/>
        <path id="Path_564" data-name="Path 564" d="M317.927,340.263c.142.7.356,1.377.53,2.063C318.282,341.64,318.069,340.961,317.927,340.263Z" fill="#fddc92"/>
        <path id="Path_565" data-name="Path 565" d="M333.835,368.037c-.576-.524-1.17-1.015-1.72-1.565C332.664,367.022,333.259,367.513,333.835,368.037Z" fill="#fddc92"/>
        <path id="Path_566" data-name="Path 566" d="M320.96,350.008c.285.647.647,1.293.951,1.94C321.593,351.314,321.244,350.68,320.96,350.008Z" fill="#fddc92"/>
        <path id="Path_567" data-name="Path 567" d="M366.077,381.4c-.834-.039-1.675-.045-2.5-.123C364.4,381.358,365.243,381.365,366.077,381.4Z" fill="#fddc92"/>
        <path id="Path_568" data-name="Path 568" d="M328.758,362.779c.485.582,1.028,1.125,1.539,1.688C329.8,363.931,329.243,363.387,328.758,362.779Z" fill="#fddc92"/>
        <path id="Path_569" data-name="Path 569" d="M325.758,358.809c.427.647.912,1.209,1.358,1.817C326.67,360.018,326.185,359.436,325.758,358.809Z" fill="#fddc92"/>
        <path id="Path_570" data-name="Path 570" d="M319.207,345.235c.213.685.5,1.339.737,2.018C319.705,346.574,319.453,345.921,319.207,345.235Z" fill="#fddc92"/>
        <path id="Path_571" data-name="Path 571" d="M323.152,354.541c.362.647.789,1.293,1.177,1.94C323.941,355.828,323.514,355.2,323.152,354.541Z" fill="#fddc92"/>
        <path id="Path_572" data-name="Path 572" d="M348.656,377.543c.731.3,1.487.543,2.237.815C350.144,378.086,349.387,377.847,348.656,377.543Z" fill="#fddc92"/>
        <path id="Path_573" data-name="Path 573" d="M339.816,372.79c.647.44,1.345.821,2.024,1.229C341.161,373.611,340.469,373.23,339.816,372.79Z" fill="#fddc92"/>
        <path id="Path_574" data-name="Path 574" d="M344.1,375.37c.692.375,1.423.685,2.134,1.028C345.526,376.055,344.8,375.745,344.1,375.37Z" fill="#fddc92"/>
        <path id="Path_575" data-name="Path 575" d="M335.813,369.815c.595.491,1.242.931,1.862,1.39C337.055,370.746,336.408,370.307,335.813,369.815Z" fill="#fddc92"/>
        <path id="Path_576" data-name="Path 576" d="M206.933,122.866H45.267V174.6H206.933l-6.467-25.867Z" fill="#fddc92"/>
        <path id="Path_577" data-name="Path 577" d="M148.733,271.6h194V77.6Zm155.2-38.8H242.4l61.53-61.53Z" fill="#fddc92"/>
      </g>
      <g id="Group_94" data-name="Group 94">
        <path id="Path_578" data-name="Path 578" d="M381.533,0h-291a6.467,6.467,0,0,0-6.467,6.467v97H97V12.933H375.066V368.6a6.364,6.364,0,0,1-5.956,6.467c-.556,0-1.112-.045-1.668-.058-1.145-.032-2.289-.058-3.414-.175a.722.722,0,0,1-.285-.039A45.331,45.331,0,0,1,323.611,334.7a2.078,2.078,0,0,0-.045-.278,45.071,45.071,0,0,1-.233-4.624V316.866a6.467,6.467,0,0,0-6.467-6.467H97V194H84.067V310.4H32.333a6.467,6.467,0,0,0-6.467,6.467V329.8a58.265,58.265,0,0,0,58.2,58.2h285.18A19.258,19.258,0,0,0,388,368.6V6.467A6.467,6.467,0,0,0,381.533,0ZM84.067,375.066A45.318,45.318,0,0,1,38.8,329.8v-6.467H310.4V329.8a59.7,59.7,0,0,0,.369,6.383c.058.563.168,1.106.246,1.662.213,1.565.472,3.123.815,4.656.116.537.265,1.067.4,1.6.394,1.558.841,3.091,1.358,4.6.149.433.3.86.466,1.293.588,1.6,1.255,3.169,1.985,4.714.155.317.3.647.453.938a54.579,54.579,0,0,0,2.671,4.779c.129.207.246.42.375.647a58.066,58.066,0,0,0,3.408,4.785l.207.278a59.6,59.6,0,0,0,4.527,5.063,57.025,57.025,0,0,0,4.333,3.88Z" fill="#ffc239"/>
        <path id="Path_579" data-name="Path 579" d="M213.4,181.066a6.466,6.466,0,0,0,4.572-1.895l25.867-25.867a6.467,6.467,0,0,0,0-9.144l-25.867-25.867A6.466,6.466,0,0,0,213.4,116.4H32.333a32.333,32.333,0,0,0,0,64.667Zm-17.977-38.8H64.667V155.2H195.422l3.233,12.933H51.733v-38.8H198.656Zm34.7,6.467-18.391,18.391-4.6-18.391,4.6-18.391Zm-217.189,0a19.4,19.4,0,0,1,19.4-19.4H38.8v38.8H32.333A19.4,19.4,0,0,1,12.933,148.733Z" fill="#ffc239"/>
        <path id="Path_580" data-name="Path 580" d="M148.733,278.066h194A6.467,6.467,0,0,0,349.2,271.6V77.6a6.467,6.467,0,0,0-11.039-4.572l-194,194a6.467,6.467,0,0,0,4.572,11.039ZM336.266,93.21v16.723H323.333v12.933h12.933V135.8H323.333v12.933h12.933v12.933H323.333V174.6h12.933v12.933H323.333v12.933h12.933V213.4H323.333v12.933h12.933v12.933H323.333V252.2h12.933v12.933H323.333V252.2H310.4v12.933H297.466V252.2H284.533v12.933H271.6V252.2H258.666v12.933H245.733V252.2H232.8v12.933H219.866V252.2H206.933v12.933H194V252.2H181.066v12.933H164.344Z" fill="#ffc239"/>
        <path id="Path_581" data-name="Path 581" d="M242.4,239.266h61.53A6.467,6.467,0,0,0,310.4,232.8v-61.53a6.467,6.467,0,0,0-11.039-4.572l-61.53,61.53a6.467,6.467,0,0,0,4.572,11.039Zm55.064-52.38v39.447H258.02Z" fill="#ffc239"/>
        <path id="Path_582" data-name="Path 582" d="M168.133,38.8H297.466V51.733H168.133Z" fill="#ffc239"/>
        <path id="Path_583" data-name="Path 583" d="M148.733,64.667H316.866V77.6H148.733Z" fill="#ffc239"/>
        <path id="Path_584" data-name="Path 584" d="M109.933,200.466h38.8V213.4h-38.8Z" fill="#ffc239"/>
        <path id="Path_585" data-name="Path 585" d="M109.933,226.333H135.8v12.933H109.933Z" fill="#ffc239"/>
      </g>
    </g>
  </g>
</svg>
