<svg xmlns="http://www.w3.org/2000/svg" xmlns:xlink="http://www.w3.org/1999/xlink" width="58" height="57" viewBox="0 0 58 57">
  <defs>
    <clipPath id="clip-path">
      <rect id="Rectangle_606" data-name="Rectangle 606" width="58" height="57" transform="translate(226 1114)" fill="#fff" stroke="#707070" stroke-width="1"/>
    </clipPath>
  </defs>
  <g id="Mask_Group_16" data-name="Mask Group 16" transform="translate(-226 -1114)" clip-path="url(#clip-path)">
    <g id="Page-1" transform="translate(226.499 1113.998)">
      <g id="_043---Gardening" data-name="043---Gardening">
        <path id="Shape" d="M48.157,29.484H44.226A1.966,1.966,0,0,0,42.26,31.45V45.209a3.931,3.931,0,0,0,7.862,0V31.45A1.966,1.966,0,0,0,48.157,29.484ZM46.192,46.192a.983.983,0,1,1,.983-.983A.983.983,0,0,1,46.192,46.192Z" fill="#88a129"/>
        <path id="Shape-2" data-name="Shape" d="M46.192,17.69a1.966,1.966,0,0,1,1.966,1.966v7.862H44.226V19.656A1.966,1.966,0,0,1,46.192,17.69Z" fill="#88a129"/>
        <path id="Shape-3" data-name="Shape" d="M50.526,2.919,46.771.187a1,1,0,0,0-1.16,0L41.857,2.919a15.725,15.725,0,0,0-6.477,12.717V22.6a1.971,1.971,0,0,0,1.966,1.966H42.26V19.656a3.931,3.931,0,0,1,7.862,0V24.57h4.914A1.971,1.971,0,0,0,57,22.6V15.636A15.725,15.725,0,0,0,50.526,2.919Zm-3.351,10.84a.983.983,0,1,1-1.966,0V4.914a.983.983,0,0,1,1.966,0Z" fill="#88a129"/>
        <path id="Shape-4" data-name="Shape" d="M31.011,50.456a3.666,3.666,0,0,0-2.247-.261.994.994,0,0,1-1.012-.393,3.9,3.9,0,0,0-5.415-.941.983.983,0,0,1-1.431-.272A4.884,4.884,0,0,0,17.669,46.3a.967.967,0,0,0,.022-.105V37.433a4.927,4.927,0,0,1,2.058-4l.2-.144a6.019,6.019,0,0,0,7.745-.7c3.666-3.7,3.952-7.1,3.67-9.107a1.015,1.015,0,0,0-1.613-.68c-1.086.823-3.065,1.658-6.307.924a4.24,4.24,0,0,0-4.079,1.189,5.47,5.47,0,0,0-.786,6.934,6.894,6.894,0,0,0-2.857,5.579v.118a6.735,6.735,0,0,0-.916-.8L13.04,35.486a5.462,5.462,0,0,0-.96-6.633A4.24,4.24,0,0,0,8,27.664c-3.243.734-5.221-.1-6.307-.924a1.015,1.015,0,0,0-1.613.68c-.282,2,0,5.411,3.67,9.107a6.016,6.016,0,0,0,7.889.6c.05-.041.1-.086.143-.128l1.882,1.344a4.927,4.927,0,0,1,2.06,4v3.845a.967.967,0,0,0,.022.106,4.884,4.884,0,0,0-3.237,2.292.983.983,0,0,1-1.431.272,3.9,3.9,0,0,0-5.415.941.994.994,0,0,1-1.012.393,3.666,3.666,0,0,0-2.247.261A4.162,4.162,0,0,0,0,54.288V56.02A.983.983,0,0,0,.983,57h31.45a.983.983,0,0,0,.983-.983V54.288a4.162,4.162,0,0,0-2.4-3.832Zm-21.183,3.6H7.862a.983.983,0,0,1,0-1.966H9.828a.983.983,0,0,1,0,1.966Zm9.4-1.153a.983.983,0,0,1-1.366-.26,1.5,1.5,0,0,0-1.152-.552,1.614,1.614,0,0,0-1.179.59A.984.984,0,0,1,13.951,51.5a3.568,3.568,0,0,1,2.757-1.379,3.472,3.472,0,0,1,2.779,1.413.983.983,0,0,1-.261,1.365Zm6.327,1.153H23.587a.983.983,0,1,1,0-1.966h1.966a.983.983,0,1,1,0,1.966Z" fill="#88a129"/>
      </g>
    </g>
  </g>
</svg>
