<svg xmlns="http://www.w3.org/2000/svg" xmlns:xlink="http://www.w3.org/1999/xlink" width="388" height="388" viewBox="0 0 388 388">
  <defs>
    <clipPath id="clip-path">
      <rect id="Rectangle_628" data-name="Rectangle 628" width="388" height="388" transform="translate(9234 956)" fill="#fff" stroke="#707070" stroke-width="1"/>
    </clipPath>
  </defs>
  <g id="Mask_Group_20" data-name="Mask Group 20" transform="translate(-9234 -956)" clip-path="url(#clip-path)">
    <g id="Page-1" transform="translate(9234.003 955.993)">
      <g id="_043---Gardening" data-name="043---Gardening">
        <path id="Shape" d="M327.791,200.688H301.032a13.379,13.379,0,0,0-13.379,13.379v93.654a26.758,26.758,0,0,0,53.517,0V214.067A13.379,13.379,0,0,0,327.791,200.688ZM314.412,314.412a6.69,6.69,0,1,1,6.69-6.69A6.69,6.69,0,0,1,314.412,314.412Z" fill="#ffc239"/>
        <path id="Shape-2" data-name="Shape" d="M314.412,120.413a13.379,13.379,0,0,1,13.379,13.379v53.517H301.032V133.792A13.379,13.379,0,0,1,314.412,120.413Z" fill="#ffc239"/>
        <path id="Shape-3" data-name="Shape" d="M343.913,19.868l-25.554-18.6a6.837,6.837,0,0,0-7.894,0l-25.554,18.6a107.034,107.034,0,0,0-44.085,86.564v47.429a13.419,13.419,0,0,0,13.379,13.379h33.448V133.792a26.758,26.758,0,1,1,53.517,0V167.24h33.448A13.419,13.419,0,0,0,388,153.861V106.432a107.034,107.034,0,0,0-44.085-86.564ZM321.1,93.655a6.69,6.69,0,1,1-13.379,0V33.448a6.69,6.69,0,1,1,13.379,0Z" fill="#ffc239"/>
        <path id="Shape-4" data-name="Shape" d="M211.084,343.438a24.952,24.952,0,0,0-15.292-1.779,6.763,6.763,0,0,1-6.89-2.676,26.524,26.524,0,0,0-36.86-6.4,6.69,6.69,0,0,1-9.74-1.853,33.241,33.241,0,0,0-22.036-15.6,6.581,6.581,0,0,0,.147-.716V254.794a33.535,33.535,0,0,1,14.008-27.22l1.378-.983a40.967,40.967,0,0,0,52.721-4.736c24.952-25.153,26.9-48.352,24.979-61.986a6.91,6.91,0,0,0-10.978-4.629c-7.392,5.6-20.865,11.285-42.927,6.288a28.859,28.859,0,0,0-27.762,8.094,37.234,37.234,0,0,0-5.352,47.2,46.928,46.928,0,0,0-19.447,37.977v.8a45.841,45.841,0,0,0-6.235-5.459l-12.041-8.6a37.181,37.181,0,0,0-6.536-45.148A28.859,28.859,0,0,0,54.46,188.3c-22.076,5-35.535-.669-42.927-6.288A6.91,6.91,0,0,0,.555,186.64c-1.92,13.633,0,36.833,24.979,61.986a40.947,40.947,0,0,0,53.7,4.114c.341-.281.669-.589.97-.87l12.811,9.151a33.535,33.535,0,0,1,14.021,27.22v26.17a6.586,6.586,0,0,0,.147.723,33.241,33.241,0,0,0-22.036,15.6,6.69,6.69,0,0,1-9.74,1.853,26.524,26.524,0,0,0-36.86,6.4,6.763,6.763,0,0,1-6.89,2.676,24.952,24.952,0,0,0-15.292,1.779A28.33,28.33,0,0,0,0,369.521v11.787A6.69,6.69,0,0,0,6.69,388H220.757a6.69,6.69,0,0,0,6.69-6.69V369.521a28.33,28.33,0,0,0-16.363-26.083ZM66.9,367.928H53.517a6.69,6.69,0,0,1,0-13.379H66.9a6.69,6.69,0,0,1,0,13.379Zm63.966-7.847a6.69,6.69,0,0,1-9.3-1.773,10.2,10.2,0,0,0-7.84-3.76,10.984,10.984,0,0,0-8.028,4.014,6.7,6.7,0,0,1-10.737-8.007,24.283,24.283,0,0,1,18.764-9.386,23.634,23.634,0,0,1,18.918,9.62,6.69,6.69,0,0,1-1.779,9.292Zm43.068,7.847H160.551a6.69,6.69,0,0,1,0-13.379H173.93a6.69,6.69,0,1,1,0,13.379Z" fill="#ffc239"/>
      </g>
    </g>
  </g>
</svg>
