<svg fill="#FFC239" id="Layer_1" height="512" viewBox="0 0 512 512" width="512" xmlns="http://www.w3.org/2000/svg" data-name="Layer 1"><path d="m403.699 191.094h-76.545l-10.567 48.006h87.112z"/><path d="m406.7 336.856c0 18.034 13.738 32.706 30.624 32.706s30.624-14.672 30.624-32.706-13.738-32.706-30.624-32.706-30.624 14.672-30.624 32.706z"/><path d="m309.223 290.15c21.858 0 40.084 16.54 43.883 38.288h40.334c3.8-21.748 22.026-38.288 43.884-38.288 21.7 0 39.82 16.3 43.8 37.808a11.824 11.824 0 0 0 7.876-11.428v-63.43h-210.439a26.868 26.868 0 0 0 -26.837 26.838v48.5h13.615c3.8-21.748 22.025-38.288 43.884-38.288z"/><path d="m417.7 184.094v55.006h29.585v-84.172h-104.546a9.49 9.49 0 0 0 -9.354 7.837c-.017.093-.035.186-.056.278l-3.093 14.051h80.464a7 7 0 0 1 7 7z"/><path d="m239.724 279.938c0-.983-1.953-1.953.115-2.918h-17.416v36.33h17.3z"/><path d="m339.847 336.856c0-18.034-13.739-32.706-30.624-32.706s-30.623 14.672-30.623 32.706 13.738 32.706 30.624 32.706 30.623-14.672 30.623-32.706z"/><path d="m87.549 142.438h-31.64a8.213 8.213 0 0 0 -5.5 2.106l-16.15 14.514h53.29z"/><path d="m23.814 229.317h141.469a.816.816 0 0 0 .815-.814v-55.445h-143.098v55.442a.815.815 0 0 0 .814.817zm82.368-25.773a6 6 0 0 1 8.484 0l.522.522v-16.42a6 6 0 0 1 12 0v16.421l.522-.523a6 6 0 1 1 8.484 8.486l-10.764 10.763a6 6 0 0 1 -8.485 0l-10.763-10.763a6 6 0 0 1 0-8.486zm-53.282-9.377 10.768-10.767a6 6 0 0 1 8.484 0l10.764 10.763a6 6 0 1 1 -8.484 8.486l-.522-.522v16.42a6 6 0 0 1 -12 0v-16.42l-.521.522a6 6 0 0 1 -8.485-8.486z"/><path d="m23.814 299.577h141.469a.816.816 0 0 0 .815-.814v-55.446h-143.098v55.446a.815.815 0 0 0 .814.814zm82.368-25.772a6 6 0 0 1 8.484 0l.522.521v-16.42a6 6 0 0 1 12 0v16.42l.522-.522a6 6 0 1 1 8.484 8.486l-10.764 10.764a6 6 0 0 1 -8.485 0l-10.763-10.764a6 6 0 0 1 0-8.485zm-53.282-9.377 10.764-10.764a6 6 0 0 1 8.484 0l10.764 10.764a6 6 0 1 1 -8.484 8.484l-.522-.521v16.42a6 6 0 0 1 -12 0v-16.42l-.521.521a6 6 0 0 1 -8.485-8.484z"/><path d="m138.685 144.544a8.212 8.212 0 0 0 -5.5-2.106h-31.64v16.62h53.286z"/><path d="m24.706 352.8h188.717a3.5 3.5 0 0 0 3.5-3.5v-108.664a3.5 3.5 0 0 0 -3.5-3.5h-22.118a3.5 3.5 0 0 0 -3.5 3.5v82.214h-149.634a3.517 3.517 0 0 0 -3.02 1.729l-13.464 22.952a3.5 3.5 0 0 0 3.019 5.272z"/></svg>