<?xml version="1.0" encoding="iso-8859-1"?>
<!-- Generator: Adobe Illustrator 19.0.0, SVG Export Plug-In . SVG Version: 6.00 Build 0)  -->
<svg fill="#FFC239" version="1.1" id="Capa_1" xmlns="http://www.w3.org/2000/svg" xmlns:xlink="http://www.w3.org/1999/xlink" x="0px" y="0px"
	 viewBox="0 0 449 449" style="enable-background:new 0 0 449 449;" xml:space="preserve">
<g>
	<g>
		<path d="M260.5,144c-17.5-0.1-34.6,5.6-48.6,16.2c-20.1,15-31.9,38.6-31.8,63.7v24.2l81.8-11.5c0-0.1,0.2-0.1,0.2-0.2V144H260.5z"
			/>
	</g>
</g>
<g>
	<g>
		<path d="M138.4,0l-10.7,8.2l40,64l41.1,65.7c13.5-8.1,28.7-12.9,44.5-14L138.4,0z"/>
	</g>
</g>
<g>
	<g>
		<rect x="223.1" y="318" width="108" height="18"/>
	</g>
</g>
<g>
	<g>
		<path d="M282.1,144c-0.1,0-0.1,0.1-0.2,0.2l0.2,89.5l60-8.5V144H282.1z"/>
	</g>
</g>
<g>
	<g>
		<path d="M70.2,251c-1.4,0-2.8,0.1-4.1,0.3c-0.1,0-0.1-0.1-0.2-0.1c-4.3,0.9-8.1,3-11.1,6.1L4.2,311h66.6c8.8,0,16.3-6.8,16.3-15.5
			V251H70.2z"/>
	</g>
</g>
<g>
	<g>
		<polygon points="354.7,243.7 274.6,255 173.1,269.3 173.1,298 437.1,298 437.1,232 		"/>
	</g>
</g>
<g>
	<g>
		<path d="M120.7,34.9L73.6,231h12.7l56.8-152.6c0.5-1.5,1.3-2.8,2.4-3.8L120.7,34.9z"/>
	</g>
</g>
<g>
	<g>
		<path d="M385.5,378.3c-13,0-23.5,10.5-23.5,23.5s10.5,23.5,23.5,23.5c12.9-0.1,23.4-10.5,23.5-23.4c0-0.1,0-0.1,0-0.1
			C409,388.8,398.5,378.3,385.5,378.3z"/>
	</g>
</g>
<g>
	<g>
		<path d="M398.3,356H156c-25.7,0-46.5,20.8-46.5,46.5S130.3,449,156,449h242.3c25.7,0,46.5-20.8,46.5-46.5S424,356,398.3,356z
			 M163.9,445.3c-24.1,0-43.5-19.4-43.5-43.5c0-24.1,19.5-43.5,43.5-43.5c24,0.1,43.4,19.5,43.5,43.5
			C207.4,425.9,188,445.3,163.9,445.3z M274.7,445.3c-24.1,0-43.5-19.4-43.5-43.5c0-24.1,19.5-43.5,43.5-43.5
			c24,0.1,43.4,19.5,43.5,43.5C318.2,425.9,298.7,445.3,274.7,445.3z M385.5,445.3c-24.1,0-43.5-19.4-43.5-43.5
			c0-24.1,19.5-43.5,43.5-43.5c24,0.1,43.4,19.5,43.5,43.5C429,425.9,409.6,445.3,385.5,445.3z"/>
	</g>
</g>
<g>
	<g>
		<path d="M274.7,378.3c-13,0-23.5,10.5-23.5,23.5s10.5,23.5,23.5,23.5c12.9-0.1,23.4-10.5,23.5-23.4c0-0.1,0-0.1,0-0.1
			C298.2,388.8,287.7,378.3,274.7,378.3z"/>
	</g>
</g>
<g>
	<g>
		<path d="M163.9,378.3c-13,0-23.5,10.5-23.5,23.5s10.5,23.5,23.5,23.5c12.9-0.1,23.4-10.5,23.5-23.4c0-0.1,0-0.1,0-0.1
			C187.4,388.8,176.9,378.3,163.9,378.3z"/>
	</g>
</g>
<g>
</g>
<g>
</g>
<g>
</g>
<g>
</g>
<g>
</g>
<g>
</g>
<g>
</g>
<g>
</g>
<g>
</g>
<g>
</g>
<g>
</g>
<g>
</g>
<g>
</g>
<g>
</g>
<g>
</g>
</svg>
