<svg id="OBJECTS" xmlns="http://www.w3.org/2000/svg" viewBox="0 0 500 160.02"><defs><style>.cls-1{fill:#808285;}.cls-2{fill:#414042;}.cls-3{fill:#fdbf22;}.cls-4{fill:#333;}.cls-5{fill:#d4a01d;}.cls-6{fill:#545454;}.cls-7{fill:#bbe6eb;}.cls-8{fill:#cbcbcb;}.cls-9{fill:#bbb;}.cls-10{fill:#ce9006;}.cls-11{fill:#bd8405;}.cls-12{fill:#e1aa1e;}.cls-13{fill:#283039;}.cls-14{fill:#dca61f;}.cls-15{fill:#2c6471;}.cls-16{fill:#f1942e;}.cls-17{fill:#aa6b21;}.cls-18{fill:#367480;}.cls-19{fill:#696965;}.cls-20{fill:#3e3e3c;}.cls-21{fill:#8f8f8a;}.cls-22{fill:#e9b020;}.cls-23{fill:#d1d3d4;}.cls-24{fill:#f15a29;}.cls-25{fill:#334a5f;}.cls-26{fill:#fff;}.cls-27{fill:#2c3b4e;}.cls-28{fill:#e6e7e8;}.cls-29{fill:#6d6e71;}</style></defs><rect class="cls-1" x="119.64" y="87.74" width="39.24" height="0.85"/><rect class="cls-1" x="119.64" y="62.61" width="39.24" height="0.85"/><rect class="cls-1" x="119.64" y="75.18" width="39.24" height="0.85"/><rect class="cls-1" x="119.64" y="100.3" width="39.24" height="0.85"/><rect class="cls-1" x="119.64" y="112.87" width="39.24" height="0.85"/><rect class="cls-1" x="122.52" y="52.74" width="0.85" height="70.85"/><rect class="cls-1" x="133.4" y="52.74" width="0.85" height="70.85"/><rect class="cls-1" x="144.28" y="52.74" width="0.85" height="70.85"/><rect class="cls-1" x="155.16" y="52.74" width="0.85" height="70.85"/><rect class="cls-1" x="328.5" y="84.2" width="0.85" height="39.24"/><rect class="cls-1" x="353.63" y="84.2" width="0.85" height="39.24"/><rect class="cls-1" x="341.06" y="84.2" width="0.85" height="39.24"/><rect class="cls-1" x="315.94" y="84.2" width="0.85" height="39.24"/><rect class="cls-1" x="303.37" y="84.2" width="0.85" height="39.24"/><rect class="cls-1" x="293.5" y="87.08" width="70.85" height="0.85"/><rect class="cls-1" x="293.5" y="97.95" width="70.85" height="0.85"/><rect class="cls-1" x="293.5" y="108.83" width="70.85" height="0.85"/><rect class="cls-1" x="293.5" y="119.71" width="70.85" height="0.85"/><path class="cls-2" d="M113.23,98.64,118,73.4a2.3,2.3,0,0,1,.9-1.56,2.51,2.51,0,0,1,1.42-.45h9.78A1.66,1.66,0,0,1,131.74,73a3.31,3.31,0,0,1-.08.6L122,120.81a3.18,3.18,0,0,1-1.19,1.94,3.75,3.75,0,0,1-2.54.89h-6.19a3.34,3.34,0,0,1-2.43-.89,5.17,5.17,0,0,1-1.31-1.94l-5.59-16.87-5.61,16.87a5.14,5.14,0,0,1-1.3,1.94,3.34,3.34,0,0,1-2.43.89H87.25a3.75,3.75,0,0,1-2.54-.89,3.2,3.2,0,0,1-1.2-1.94L73.88,73.63a3.15,3.15,0,0,1-.07-.6,1.64,1.64,0,0,1,1.64-1.64h9.78a2.51,2.51,0,0,1,1.42.45,2.26,2.26,0,0,1,.89,1.56l4.78,25.24,4.41-13.52a5.66,5.66,0,0,1,.67-1.34A2,2,0,0,1,99.27,83h7a2,2,0,0,1,1.87.82,5.66,5.66,0,0,1,.67,1.34Z"/><path class="cls-2" d="M180.19,111.7a2,2,0,0,1,2,2v7.91a2,2,0,0,1-.59,1.42,1.94,1.94,0,0,1-1.42.59H144.8a2,2,0,0,1-2-2V73.4a2,2,0,0,1,2-2h34.79A1.94,1.94,0,0,1,181,72a2,2,0,0,1,.6,1.41v7.92a2,2,0,0,1-2,2h-23V91.4H178a2,2,0,0,1,2,2v7.91a2,2,0,0,1-2,2H156.6v8.36Z"/><path class="cls-2" d="M196.53,123.64a1.9,1.9,0,0,1-1.41-.59,1.94,1.94,0,0,1-.6-1.42V73.4a2,2,0,0,1,2-2h24A22.7,22.7,0,0,1,229,72.77a15.17,15.17,0,0,1,5.48,3.58,13.2,13.2,0,0,1,2.95,5,18.17,18.17,0,0,1,.9,5.57,12.87,12.87,0,0,1-.49,3.77,13.18,13.18,0,0,1-1.15,2.76,9.16,9.16,0,0,1-1.38,1.86c-.48.48-.86.84-1.16,1.09a11.21,11.21,0,0,1,4.07,4.66,16,16,0,0,1,1.15,6.39,20.08,20.08,0,0,1-.89,6,13.71,13.71,0,0,1-3,5.19,14.84,14.84,0,0,1-5.34,3.65,20.84,20.84,0,0,1-8.06,1.38Zm27.92-36.43a4.17,4.17,0,0,0-1.15-3.09A4.64,4.64,0,0,0,219.9,83H208.33v8.51H219.9a4.64,4.64,0,0,0,3.4-1.16A4.18,4.18,0,0,0,224.45,87.21Zm-16.12,24.86h12.32a4.92,4.92,0,0,0,3.58-1.3,4.61,4.61,0,0,0,0-6.5,4.92,4.92,0,0,0-3.58-1.3H208.33Z"/><path class="cls-2" d="M270.81,70.64A26.66,26.66,0,0,1,279.58,72a25.52,25.52,0,0,1,6.91,3.55A17.77,17.77,0,0,1,291,80.35a10,10,0,0,1,1.72,5,1.57,1.57,0,0,1-.49,1.16,1.49,1.49,0,0,1-1.08.48h-9.78a4,4,0,0,1-1.68-.3,5.63,5.63,0,0,1-1.31-.89l-.7-.75A7.05,7.05,0,0,0,276.34,84a9.19,9.19,0,0,0-2.24-1,11.23,11.23,0,0,0-3.29-.41,20.08,20.08,0,0,0-2.73.18,10.23,10.23,0,0,0-2.31.6,4.11,4.11,0,0,0-1.64,1.16,2.8,2.8,0,0,0-.64,1.86,2.62,2.62,0,0,0,.71,1.87,6.47,6.47,0,0,0,2.39,1.38A31.44,31.44,0,0,0,271,90.87q2.74.6,6.86,1.42a38.38,38.38,0,0,1,7.17,2.09,17.08,17.08,0,0,1,5.11,3.17,12,12,0,0,1,3.06,4.48,16.74,16.74,0,0,1,1,6.09,13.31,13.31,0,0,1-1.72,6.79,15.57,15.57,0,0,1-4.81,5.11,23.57,23.57,0,0,1-7.32,3.25,35.68,35.68,0,0,1-9.22,1.12,30.26,30.26,0,0,1-9.25-1.34,25.4,25.4,0,0,1-7.21-3.55,18,18,0,0,1-4.74-5,11.12,11.12,0,0,1-1.79-5.6,1.57,1.57,0,0,1,.49-1.16,1.49,1.49,0,0,1,1.08-.48h9.78a4.1,4.1,0,0,1,1.64.26,4.71,4.71,0,0,1,1.2.78c.19.2.49.52.89,1a9,9,0,0,0,1.61,1.38,9.47,9.47,0,0,0,2.53,1.23,11.73,11.73,0,0,0,3.77.53,21.82,21.82,0,0,0,6.61-.86c1.77-.57,2.65-1.61,2.65-3.1a2.27,2.27,0,0,0-1-1.87,10.42,10.42,0,0,0-2.91-1.38,45,45,0,0,0-5-1.23c-2-.4-4.39-.89-7.13-1.49-5.12-1.1-8.87-2.92-11.23-5.49s-3.55-6-3.55-10.26a13.51,13.51,0,0,1,1.46-6.12,15.63,15.63,0,0,1,4.22-5.16A21,21,0,0,1,262,72,27.66,27.66,0,0,1,270.81,70.64Z"/><path class="cls-2" d="M307.46,123.64a1.9,1.9,0,0,1-1.41-.59,1.94,1.94,0,0,1-.6-1.42V73.4a2,2,0,0,1,2-2h9.78a2,2,0,0,1,2,2v48.23a2,2,0,0,1-2,2Z"/><path class="cls-2" d="M371.81,71.39a2,2,0,0,1,2,2v7.92a1.94,1.94,0,0,1-.6,1.42,2,2,0,0,1-1.42.59H358.67v38.3a2,2,0,0,1-.59,1.42,1.93,1.93,0,0,1-1.42.59h-9.78a2,2,0,0,1-2-2V83.33H331.72a2,2,0,0,1-2-2V73.4a2,2,0,0,1,2-2Z"/><path class="cls-2" d="M421.68,111.7a1.94,1.94,0,0,1,1.42.6,2,2,0,0,1,.6,1.42v7.91a2,2,0,0,1-.6,1.42,1.93,1.93,0,0,1-1.42.59H386.29a1.9,1.9,0,0,1-1.41-.59,1.94,1.94,0,0,1-.6-1.42V73.4a2,2,0,0,1,2-2h34.79a2,2,0,0,1,2,2v7.92a1.94,1.94,0,0,1-.6,1.42,2,2,0,0,1-1.42.59h-23V91.4h21.35a2,2,0,0,1,2,2v7.91a2,2,0,0,1-2,2H398.09v8.36Z"/><path class="cls-3" d="M147.45,120.31l-1.75,3.77H127.25l-1.48-3.77v-2.08a1.55,1.55,0,0,1,1.33-1.53l9.19-1.28h9.55l1.17,1.1a1.39,1.39,0,0,1,.44,1Z"/><path class="cls-4" d="M145.84,115.42l-1.21-6h-7.22l-1.12,6,.94,3.28a.91.91,0,0,0,.88.67h6.24a.92.92,0,0,0,.9-.75Z"/><polygon class="cls-5" points="147.44 120.43 125.82 120.43 127.3 124.08 145.74 124.08 147.44 120.43"/><path class="cls-4" d="M129.44,127.21h15.87a2.48,2.48,0,0,0,2.48-2.48h0a2.49,2.49,0,0,0-2.48-2.49H129.44a2.49,2.49,0,0,0-2.48,2.49h0A2.48,2.48,0,0,0,129.44,127.21Z"/><path class="cls-6" d="M129.86,126.4h15a1.66,1.66,0,0,0,1.66-1.67h0a1.66,1.66,0,0,0-1.66-1.67h-15a1.66,1.66,0,0,0-1.66,1.67h0A1.66,1.66,0,0,0,129.86,126.4Z"/><path class="cls-3" d="M128.91,124.73a1.43,1.43,0,1,0,1.42-1.43A1.43,1.43,0,0,0,128.91,124.73Z"/><path class="cls-3" d="M136,124.73a1.43,1.43,0,1,0,1.42-1.43A1.43,1.43,0,0,0,136,124.73Z"/><path class="cls-3" d="M143,124.73a1.43,1.43,0,1,0,1.42-1.43A1.42,1.42,0,0,0,143,124.73Z"/><path class="cls-3" d="M137.08,109.43h8a.5.5,0,0,0,.5-.5h0a.5.5,0,0,0-.5-.5h-8a.51.51,0,0,0-.5.5h0A.5.5,0,0,0,137.08,109.43Z"/><path class="cls-7" d="M138.46,110.35l-1,5a.55.55,0,0,0,0,.22l.41,1.49a.46.46,0,0,0,.46.35h2.68V110h-2.12A.49.49,0,0,0,138.46,110.35Z"/><path class="cls-7" d="M141.68,110h1.51a.65.65,0,0,1,.66.65v6.09a.65.65,0,0,1-.66.66h-1.51Z"/><path class="cls-4" d="M126.67,120.22l.43.57a.22.22,0,0,0,.3,0l4.18-3.18a.56.56,0,0,0,.11-.79h0a.57.57,0,0,0-.8-.11l-4.18,3.17A.22.22,0,0,0,126.67,120.22Z"/><rect class="cls-8" x="123.04" y="118.68" width="0.36" height="9.22" transform="translate(99.28 295.95) rotate(-127.12)"/><path class="cls-5" d="M119.76,125.48h17a.63.63,0,0,0,.64-.64h0a.64.64,0,0,0-.64-.65h-17Z"/><path class="cls-8" d="M121.74,121.18v5.25a1.07,1.07,0,0,1-1.07,1.08h-4.48a.35.35,0,0,1-.25-.6l1.82-1.85a1.14,1.14,0,0,0,.33-.8v-.93a2.9,2.9,0,0,1,2.9-2.9h0A.76.76,0,0,1,121.74,121.18Z"/><path class="cls-9" d="M120.78,126.43v-5.25a.74.74,0,0,0-.43-.68,3.39,3.39,0,0,1,.64-.07h0a.76.76,0,0,1,.75.75v5.25a1.07,1.07,0,0,1-1.07,1.08h-1A1.07,1.07,0,0,0,120.78,126.43Z"/><path class="cls-4" d="M83.61,119.76l.18-.13a.17.17,0,0,0,0-.23l-1-1.42a.16.16,0,0,0-.23,0l-.18.13a.17.17,0,0,0,0,.23l1,1.43A.16.16,0,0,0,83.61,119.76Z"/><rect class="cls-8" x="82.08" y="117.04" width="0.19" height="1.07" transform="translate(217.59 164.86) rotate(144.2)"/><path class="cls-4" d="M72.1,116.69a.67.67,0,0,1,.65.53l.72,3.56H70.13v-4.23Z"/><path class="cls-3" d="M62.2,118.11l.55-.52,1.21-3a.83.83,0,0,1,.76-.51H69.4a.73.73,0,0,1,.73.73v7.88H62.29a.6.6,0,0,1-.6-.6v-2.8A1.6,1.6,0,0,1,62.2,118.11Z"/><path class="cls-7" d="M69.11,115.18v1.56a.41.41,0,0,1-.41.41H64.16a.41.41,0,0,1-.39-.56l.6-1.56a.42.42,0,0,1,.39-.27H68.7A.42.42,0,0,1,69.11,115.18Z"/><path class="cls-10" d="M70.07,121.65h21.1a0,0,0,0,1,0,0v1a0,0,0,0,1,0,0H70.4a.32.32,0,0,1-.32-.32v-.72A0,0,0,0,1,70.07,121.65Z" transform="translate(161.25 244.33) rotate(180)"/><path class="cls-4" d="M63,122.69H90.53a.65.65,0,0,1,.65.65V124a0,0,0,0,1,0,0h-29a0,0,0,0,1,0,0v-.56A.8.8,0,0,1,63,122.69Z" transform="translate(153.39 246.73) rotate(180)"/><path class="cls-11" d="M90.74,121.06v.59H70.13v-1H90C90.41,120.68,90.74,120.66,90.74,121.06Z"/><path class="cls-10" d="M62.2,118.11l.25-.24h7.68v.26h-8Z"/><path class="cls-12" d="M68.51,121.44a3.17,3.17,0,0,0-3.08,2.43,1,1,0,0,1-.92.74h0a.07.07,0,0,1-.07-.07,4.07,4.07,0,0,1,8.14,0,.08.08,0,0,1-.07.07h0a1,1,0,0,1-.92-.74A3.17,3.17,0,0,0,68.51,121.44Z"/><path class="cls-10" d="M65.43,123.87a3.17,3.17,0,0,1,6.16,0,.64.64,0,0,0,.06.18H65.37Z"/><path class="cls-13" d="M65.61,124.61a2.9,2.9,0,1,0,2.9-2.9A2.9,2.9,0,0,0,65.61,124.61Z"/><path class="cls-3" d="M67.51,124.61a1,1,0,1,0,2,0,1,1,0,1,0-2,0Z"/><path class="cls-8" d="M63.16,122.6v.93a.91.91,0,0,1-.91.91H61.6a.9.9,0,0,1-.9-.9v-.65a.9.9,0,0,1,.9-.9h.95A.62.62,0,0,1,63.16,122.6Z"/><path class="cls-12" d="M80.76,120.54h6.89a4.06,4.06,0,0,1,4.06,4,.07.07,0,0,1-.06.07,1,1,0,0,1-.92-.74,3.18,3.18,0,0,0-3.08-2.43H80.76a3.17,3.17,0,0,0-3.08,2.43,1,1,0,0,1-.92.74.07.07,0,0,1-.06-.07A4.06,4.06,0,0,1,80.76,120.54Z"/><path class="cls-11" d="M77.68,123.87a3.17,3.17,0,0,1,3.08-2.43h6.89a3.18,3.18,0,0,1,3.08,2.43.64.64,0,0,0,.06.18H77.62A.64.64,0,0,0,77.68,123.87Z"/><path class="cls-13" d="M78.06,124.61a2.9,2.9,0,1,0,2.9-2.9A2.9,2.9,0,0,0,78.06,124.61Z"/><path class="cls-3" d="M80,124.61a1,1,0,1,0,1-1A1,1,0,0,0,80,124.61Z"/><path class="cls-13" d="M84.64,124.61a2.9,2.9,0,1,0,2.89-2.9A2.89,2.89,0,0,0,84.64,124.61Z"/><path class="cls-3" d="M86.54,124.61a1,1,0,1,0,1-1A1,1,0,0,0,86.54,124.61Z"/><path class="cls-11" d="M83.37,119.36h4.49a0,0,0,0,1,0,0V120a.55.55,0,0,1-.55.55H83.92a.55.55,0,0,1-.55-.55v-.63A0,0,0,0,1,83.37,119.36Z" transform="translate(171.23 239.89) rotate(180)"/><path class="cls-3" d="M88.86,120.1l-15.28-6.31a1,1,0,0,1-.64-1.07l.72-7.34a1.14,1.14,0,0,0-.69-1.16L69.9,103a.64.64,0,0,1-.4-.59h0a.65.65,0,0,1,.71-.63l4.17.46a1.38,1.38,0,0,1,.47.16l20.32,12.3a.84.84,0,0,1,.27,1.18l-1.88,2.86-3,1.38A2.1,2.1,0,0,1,88.86,120.1Z"/><path class="cls-14" d="M74.58,113l2.28-5.53a.25.25,0,0,0-.13-.32h0a.24.24,0,0,0-.32.13l-2.28,5.52a.26.26,0,0,0,.13.33h0A.25.25,0,0,0,74.58,113Z"/><path class="cls-14" d="M77.22,114.13l2.28-5.53a.25.25,0,0,0-.13-.32h0a.23.23,0,0,0-.32.13l-2.28,5.52a.25.25,0,0,0,.13.32l0,0A.25.25,0,0,0,77.22,114.13Z"/><path class="cls-14" d="M79.86,115.21l2.28-5.52a.25.25,0,0,0-.13-.32l0,0a.24.24,0,0,0-.32.14L79.37,115a.25.25,0,0,0,.13.32l0,0A.24.24,0,0,0,79.86,115.21Z"/><path class="cls-14" d="M80.41,113.17h6a.25.25,0,0,1,.25.25v0a.25.25,0,0,1-.25.25h-6a.25.25,0,0,1-.25-.25v0a.24.24,0,0,1,.24-.24Z" transform="translate(220.06 79.59) rotate(112.41)"/><path class="cls-14" d="M85.14,117.39l2.28-5.52a.25.25,0,0,0-.13-.32l0,0a.25.25,0,0,0-.32.13l-2.28,5.53a.25.25,0,0,0,.13.32l0,0A.24.24,0,0,0,85.14,117.39Z"/><path class="cls-14" d="M87.78,118.48,90.06,113a.26.26,0,0,0-.13-.33h0a.25.25,0,0,0-.32.13l-2.28,5.53a.25.25,0,0,0,.13.32l0,0A.24.24,0,0,0,87.78,118.48Z"/><path class="cls-14" d="M90.42,119.57,92.7,114a.24.24,0,0,0-.14-.31l0,0a.25.25,0,0,0-.32.13l-2.28,5.53a.25.25,0,0,0,.13.32h0A.23.23,0,0,0,90.42,119.57Z"/><path class="cls-10" d="M67.42,119h.7a.18.18,0,0,0,.18-.18h0a.19.19,0,0,0-.18-.19h-.7a.19.19,0,0,0-.18.19h0A.18.18,0,0,0,67.42,119Z"/><path class="cls-15" d="M463.25,24.71a.32.32,0,0,0,.29-.18.33.33,0,0,0-.14-.45l-27.48-14a.36.36,0,0,0-.21,0L387.08,18a.34.34,0,0,0-.28.38.34.34,0,0,0,.39.28l48.52-7.87L463.1,24.67A.26.26,0,0,0,463.25,24.71Z"/><rect class="cls-3" x="436.27" y="23.92" width="23.52" height="3.17" transform="translate(896.07 51.02) rotate(180)"/><path class="cls-16" d="M458.29,23h11.77a3.54,3.54,0,0,1,3.54,3.54v1.27a1,1,0,0,1-1,1H455.8a1,1,0,0,1-1-1V26.49A3.54,3.54,0,0,1,458.29,23Z" transform="translate(928.36 51.75) rotate(180)"/><path class="cls-3" d="M436.16,12.45a.36.36,0,0,0-.7,0l-2.18,12.34h-.79l2.81-14.58a.52.52,0,0,1,1,0l2.81,14.58h-.79Z"/><path class="cls-3" d="M432.35,25.87v9.24h7.84V25.87Zm.73.86h6.38v7.52h-6.38Z"/><path class="cls-16" d="M433.08,50.67s0-.06.08-.08l5.48-1.9-5.48-1.9c-.05,0-.08,0-.08-.07s0-.06.08-.08l5.69-2a.31.31,0,0,1,.25,0s0,.1-.05.13l-5.48,1.9,5.48,1.9s0,0,0,0h.05s0,0,0,0h0a.14.14,0,0,1-.08.07l-5.48,1.9,5.48,1.9h.05l0,0v0h0s0,0,0,0h-.05l-5.48,1.9,5.48,1.91h0l0,0h0l0,0s0,0,0,0h0s0,0,0,0h-.05l-5.48,1.9,5.48,1.9h0l0,0h0l0,0a0,0,0,0,0,0,0h0a.13.13,0,0,1,0,.05h-.05l-5.48,1.9,5.48,1.9h0l0,0h0l0,0a0,0,0,0,0,0,0h0a.13.13,0,0,1,0,.05h0s0,0,0,0l-5.48,1.9,5.48,1.9h0l0,0h0s0,0,0,0a0,0,0,0,0,0,0h0a.13.13,0,0,1,0,0h0s0,0,0,0l-5.48,1.9,5.48,1.9c.05,0,.08,0,.08.08a.09.09,0,0,1,0,0,.31.31,0,0,1-.25,0l-5.69-2c-.05,0-.08,0-.08-.08s0-.06.08-.07l5.48-1.9-5.48-1.91c-.05,0-.08,0-.08-.07s0-.06.08-.07l5.48-1.9-5.48-1.9c-.05,0-.08-.05-.08-.08s0,0,.08-.07l5.48-1.9-5.48-1.9c-.05,0-.08,0-.08-.08s0-.05.08-.07l5.48-1.9-5.48-1.9c-.05,0-.08,0-.08-.08s0,0,.08-.07l5.48-1.9-5.48-1.9C433.11,50.72,433.08,50.7,433.08,50.67Z"/><path class="cls-16" d="M433.08,74.54s0-.06.08-.08l5.69-2a.31.31,0,0,1,.25,0s0,.1-.05.13l-5.48,1.9,5.48,1.9h.07a0,0,0,0,0,0,0h0a.14.14,0,0,1-.08.07l-5.48,1.9,5.48,1.9h.07s0,0,0,0h0s0,0,0,0h0l0,0-5.48,1.9,5.48,1.9h0l0,0h0s0,0,0,0h0s0,0,0,0h0l0,0-5.48,1.9,5.48,1.9h0l0,0h0s0,0,0,0h0s0,0,0,0h-.05l-5.48,1.9,5.48,1.91h0l0,0h0l0,0a0,0,0,0,0,0,0h0a.13.13,0,0,1,0,0h-.05l-5.48,1.9,5.48,1.9h0l0,0h0l0,0v0h0a.13.13,0,0,1,0,0h-.05l-5.48,1.9,5.48,1.9c.05,0,.08.05.08.08a0,0,0,0,0,0,0s0,.07-.07.09l-5.48,1.9,5.48,1.9h0l0,0h0l0,0a0,0,0,0,0,0,0h0a.13.13,0,0,1,0,0h-.05l-5.48,1.9,5.48,1.9h.05l0,0a0,0,0,0,0,0,0h0a.13.13,0,0,1,0,0h0s0,0,0,0l-5.48,1.9,5.48,1.9h.07a0,0,0,0,0,0,0h0a.13.13,0,0,1,0,0h0s0,0,0,0l-5.48,1.9,5.48,1.9c.05,0,.08.05.08.07a.05.05,0,0,1,0,0,.27.27,0,0,1-.25,0l-5.69-2c-.05,0-.08,0-.08-.07s0-.06.08-.07l5.48-1.91-5.48-1.9c-.05,0-.08,0-.08-.07s0-.06.08-.07l5.48-1.9-5.48-1.9c-.05,0-.08,0-.08-.08s0,0,.08-.07l5.48-1.9-5.48-1.9c-.05,0-.08-.05-.08-.08s0,0,.08-.07l5.52-1.92-5.52-1.91c-.05,0-.08,0-.08-.08s0,0,.08-.07l5.48-1.9-5.48-1.9c-.05,0-.08,0-.08-.08s0,0,.08-.07l5.48-1.9-5.48-1.9c-.05,0-.08,0-.08-.08s0,0,.08-.07l5.48-1.9-5.48-1.9c-.05,0-.08,0-.08-.07s0-.06.08-.08l5.48-1.9-5.48-1.9c-.05,0-.08,0-.08-.07s0-.06.08-.08l5.48-1.9-5.48-1.9c-.05,0-.08,0-.08-.07s0-.06.08-.08l5.48-1.9-5.48-1.9C433.11,74.59,433.08,74.57,433.08,74.54Z"/><path class="cls-17" d="M366.89,18.74s-.06,0-.07.08l-1.9,5.48L363,18.82c0-.05,0-.08-.07-.08s-.06,0-.07.08l-2,5.69a.31.31,0,0,0,0,.25c0,.06.09,0,.12-.05l1.9-5.47,1.9,5.47v0s0,0,0,0h0l0,0h0s.05,0,.07-.08l1.9-5.47,1.9,5.47s0,0,0,0,0,0,0,0h0s0,0,0,0h0a.05.05,0,0,0,0,0h0l0,0,1.9-5.47,1.9,5.47v0s0,0,0,0h0s0,0,0,0h0a.05.05,0,0,0,0,0h0l0,0,1.9-5.47,1.9,5.47v0s0,0,0,0h0s0,0,0,0h0a.05.05,0,0,0,0,0h0v0s0,0,0,0l1.9-5.47,1.9,5.47v0a0,0,0,0,0,0,0h0v0h0a.05.05,0,0,0,0,0h0s0,0,0,0l1.9-5.47,1.9,5.47v0l0,0h0v0h0a.05.05,0,0,0,0,0h0s0,0,0,0l1.9-5.47,1.91,5.47c0,.05,0,.08.07.08s0,0,.05,0a.31.31,0,0,0,0-.25l-2-5.69c0-.05,0-.08-.08-.08s-.05,0-.07.08l-1.9,5.48-1.9-5.48c0-.05,0-.08-.07-.08s-.06,0-.08.08l-1.9,5.48-1.9-5.48c0-.05,0-.08-.07-.08s-.06,0-.08.08l-1.9,5.48-1.9-5.48c0-.05,0-.08-.07-.08s-.06,0-.08.08l-1.9,5.48-1.9-5.48c0-.05,0-.08-.07-.08s-.06,0-.07.08l-1.91,5.48L367,18.82C367,18.77,366.92,18.74,366.89,18.74Z"/><path class="cls-17" d="M390.76,18.74s-.05,0-.07.08l-2,5.69a.35.35,0,0,0,0,.25c0,.06.09,0,.12-.05l1.9-5.47,1.9,5.47a0,0,0,0,1,0,0s0,0,0,0h0l0,0h0s.06,0,.07-.08l1.9-5.47,1.9,5.47v0a0,0,0,0,1,0,0h0l0,0h0s0,0,.05,0h0v0s0,0,0,0l1.9-5.47,1.9,5.47s0,0,0,0,0,0,0,0h0v0h0s0,0,.05,0h0a.05.05,0,0,0,0,0l1.9-5.47,1.9,5.47s0,0,0,0,0,0,0,0h0s0,0,0,0h0s0,0,0,0h0l0,0,1.9-5.47,1.9,5.47s0,0,0,0,0,0,0,0h0v0h0a.05.05,0,0,0,0,0h0s0,0,0,0l1.9-5.47,1.9,5.47v0a0,0,0,0,0,0,0h0s0,0,0,0h0a.05.05,0,0,0,0,0h0s0,0,0,0l1.9-5.47,1.9,5.47c0,.05,0,.08.07.08h0s.07,0,.1-.07l1.9-5.47,1.9,5.47v0a0,0,0,0,0,0,0h0s0,0,0,0h0a.05.05,0,0,0,0,0h0v0s0,0,0,0l1.9-5.47,1.9,5.47v0l0,0h0l0,0h0a.05.05,0,0,0,0,0h0s0,0,0,0l1.9-5.47,1.91,5.47v0l0,0h0l0,0h0a.05.05,0,0,0,.05,0h0s0,0,0,0l1.9-5.47,1.9,5.47c0,.05.05.08.08.08s0,0,.05,0a.31.31,0,0,0,0-.25l-2-5.69c0-.05-.05-.08-.08-.08s0,0-.07.08l-1.9,5.48-1.9-5.48c0-.05,0-.08-.08-.08s-.05,0-.07.08l-1.9,5.48-1.9-5.48c0-.05,0-.08-.07-.08s-.06,0-.08.08l-1.9,5.48-1.9-5.48c0-.05,0-.08-.07-.08s-.06,0-.08.08l-1.91,5.53-1.92-5.53c0-.05,0-.08-.07-.08s-.06,0-.08.08l-1.9,5.48-1.9-5.48c0-.05,0-.08-.07-.08s-.06,0-.08.08l-1.9,5.48-1.9-5.48c0-.05,0-.08-.07-.08s-.06,0-.07.08l-1.91,5.48-1.9-5.48c0-.05,0-.08-.07-.08s-.06,0-.07.08l-1.91,5.48-1.9-5.48c0-.05,0-.08-.07-.08s-.06,0-.07.08l-1.9,5.48-1.9-5.48c0-.05-.05-.08-.08-.08s0,0-.07.08l-1.9,5.48-1.9-5.48C390.82,18.77,390.79,18.74,390.76,18.74Z"/><path class="cls-3" d="M432.35,44.06v72.66h7.51V44.06Zm.94,1.47h5.63v69.71h-5.63Z"/><rect class="cls-3" x="432.96" y="48.49" width="6.17" height="0.27" transform="translate(872.09 97.26) rotate(180)"/><rect class="cls-3" x="432.96" y="52.46" width="6.17" height="0.27" transform="translate(872.09 105.19) rotate(180)"/><rect class="cls-3" x="432.96" y="56.43" width="6.17" height="0.27" transform="translate(872.09 113.12) rotate(180)"/><rect class="cls-3" x="432.96" y="60.39" width="6.17" height="0.27" transform="translate(872.09 121.06) rotate(180)"/><rect class="cls-3" x="432.96" y="64.36" width="6.17" height="0.27" transform="translate(872.09 128.99) rotate(180)"/><rect class="cls-3" x="432.96" y="68.33" width="6.17" height="0.27" transform="translate(872.09 136.93) rotate(180)"/><rect class="cls-3" x="432.96" y="72.29" width="6.17" height="0.27" transform="translate(872.09 144.86) rotate(180)"/><rect class="cls-3" x="432.96" y="76.26" width="6.17" height="0.27" transform="translate(872.09 152.8) rotate(180)"/><rect class="cls-3" x="432.96" y="80.23" width="6.17" height="0.27" transform="translate(872.09 160.73) rotate(180)"/><rect class="cls-3" x="432.96" y="84.2" width="6.17" height="0.27" transform="translate(872.09 168.67) rotate(180)"/><rect class="cls-3" x="432.96" y="88.16" width="6.17" height="0.27" transform="translate(872.09 176.6) rotate(180)"/><rect class="cls-3" x="432.96" y="92.13" width="6.17" height="0.27" transform="translate(872.09 184.53) rotate(180)"/><rect class="cls-3" x="432.96" y="96.1" width="6.17" height="0.27" transform="translate(872.09 192.47) rotate(180)"/><rect class="cls-3" x="432.96" y="100.07" width="6.17" height="0.27" transform="translate(872.09 200.4) rotate(180)"/><rect class="cls-3" x="432.96" y="104.03" width="6.17" height="0.27" transform="translate(872.09 208.34) rotate(180)"/><rect class="cls-3" x="432.96" y="108" width="6.17" height="0.27" transform="translate(872.09 216.27) rotate(180)"/><rect class="cls-3" x="432.96" y="111.97" width="6.17" height="0.27" transform="translate(872.09 224.21) rotate(180)"/><rect class="cls-3" x="360.24" y="24.38" width="72.11" height="1.5" transform="translate(792.59 50.25) rotate(180)"/><path class="cls-3" d="M362.87,19h67.58A1.49,1.49,0,0,0,429,17.53H362.87Z"/><path class="cls-16" d="M431.11,44.06h10a1.5,1.5,0,0,0,1.5-1.5h0a1.5,1.5,0,0,0-1.5-1.49h-10a1.49,1.49,0,0,0-1.49,1.49h0A1.5,1.5,0,0,0,431.11,44.06Z"/><path class="cls-3" d="M440.78,35.54v5.53h-9.94V35.42A1.17,1.17,0,0,1,432,34.25h7.48A1.29,1.29,0,0,1,440.78,35.54Z"/><polygon class="cls-3" points="432.79 34.02 439.8 27.01 439.17 26.38 432.46 33.09 432.79 34.02"/><path class="cls-18" d="M433.14,35.39v3.74a.83.83,0,0,1-.83.83h-2.55a1.22,1.22,0,0,1-1.22-1.22v-1A3.46,3.46,0,0,1,432,34.25h0A1.14,1.14,0,0,1,433.14,35.39Z"/><path class="cls-16" d="M432.11,27.1h8.32A1.59,1.59,0,0,0,442,25.51h0a1.59,1.59,0,0,0-1.59-1.59h-8.32a1.59,1.59,0,0,0-1.59,1.59h0A1.59,1.59,0,0,0,432.11,27.1Z"/><rect class="cls-3" x="433.57" y="20.33" width="4.4" height="0.72" transform="translate(871.54 41.38) rotate(180)"/><rect class="cls-3" x="434.42" y="16.26" width="2.69" height="0.72" transform="translate(871.54 33.25) rotate(180)"/><path class="cls-16" d="M380.94,27.66h8.27a1.26,1.26,0,0,0,1.26-1.27h0a1.25,1.25,0,0,0-1.26-1.26h-8.27a1.26,1.26,0,0,0-1.27,1.26h0A1.27,1.27,0,0,0,380.94,27.66Z"/><path class="cls-19" d="M429.56,116.72h13a0,0,0,0,1,0,0V119a2,2,0,0,1-2,2H431.6a2,2,0,0,1-2-2v-2.3A0,0,0,0,1,429.56,116.72Z" transform="translate(872.09 237.78) rotate(180)"/><path class="cls-20" d="M428.15,121h15.79a.84.84,0,0,1,.84.84v.77a1.06,1.06,0,0,1-1.06,1.06H428.36a1.06,1.06,0,0,1-1.06-1.06v-.77A.85.85,0,0,1,428.15,121Z" transform="translate(872.09 244.62) rotate(180)"/><path class="cls-3" d="M370.76,76.6a.37.37,0,0,0,.2-.07l14.31-10.89a.33.33,0,1,0-.4-.53L370.56,76a.34.34,0,0,0,.2.6Z"/><path class="cls-18" d="M384,62.53a.71.71,0,0,0,.3-.62v-2h1.56v2a2.23,2.23,0,0,1-1.14,2,.77.77,0,0,0-.42.69.78.78,0,0,0,1.56,0,.78.78,0,0,1,1.56,0A2.34,2.34,0,1,1,384,62.53Z"/><rect class="cls-18" x="384.29" y="27.66" width="1.56" height="28.12" transform="translate(770.14 83.43) rotate(180)"/><path class="cls-3" d="M385.07,60.92h0A1.89,1.89,0,0,0,387,59V55.69a1.89,1.89,0,0,0-1.89-1.9h0a1.9,1.9,0,0,0-1.89,1.9V59A1.89,1.89,0,0,0,385.07,60.92Z"/><path class="cls-3" d="M399.38,76.6a.35.35,0,0,0,.27-.14.32.32,0,0,0-.07-.46L385.27,65.11a.32.32,0,0,0-.46.06.33.33,0,0,0,.06.47l14.31,10.89A.37.37,0,0,0,399.38,76.6Z"/><rect class="cls-21" x="369.28" y="75.47" width="30.92" height="2.25" rx="0.82" transform="translate(769.48 153.19) rotate(180)"/><path class="cls-8" d="M408.62,122.36a5.15,5.15,0,1,0,5.14-5.15A5.15,5.15,0,0,0,408.62,122.36Z"/><path class="cls-3" d="M387.4,124.33v-5.82s-.45-3.39,12-3.39h9.81a1,1,0,0,1,.89.51l.25.45a1,1,0,0,1-.12,1.15l-3.31,3.71v3.39Z"/><path class="cls-4" d="M409.19,115.12l-1-7.19a1.29,1.29,0,0,0-1.29-1.12h-6.67a1.3,1.3,0,0,0-1.3,1.3v7Z"/><path class="cls-7" d="M407.33,108.12l.84,5.38a.56.56,0,0,1-.56.65h-2.24v-6.51h1.4A.56.56,0,0,1,407.33,108.12Z"/><path class="cls-7" d="M399.84,107.64h4.33a.64.64,0,0,1,.64.64v5.24a.64.64,0,0,1-.64.64h-4.33a0,0,0,0,1,0,0v-6.52A0,0,0,0,1,399.84,107.64Z" transform="translate(804.65 221.79) rotate(180)"/><path class="cls-10" d="M409.47,122.36a4.3,4.3,0,1,0,4.29-4.3A4.3,4.3,0,0,0,409.47,122.36Z"/><path class="cls-10" d="M390.41,120.94a4.93,4.93,0,0,1,8.68,0h7.81v3.39H387.4v-3.39Z"/><path class="cls-4" d="M389.69,121.73v2a1.15,1.15,0,0,1-1.14,1.15h-1.28a1.3,1.3,0,0,1-.69-.21l-1.31-.85a.83.83,0,0,1-.38-.7v-1.31a.83.83,0,0,1,.83-.83h3.18A.79.79,0,0,1,389.69,121.73Z"/><path class="cls-3" d="M404.82,124.65l15.56-.44a.72.72,0,0,0,.7-.72v-1.1a.72.72,0,0,0-.7-.72l-15.56-.44a.56.56,0,0,0-.57.56v2.3A.55.55,0,0,0,404.82,124.65Z"/><path class="cls-10" d="M413.24,122.89a.53.53,0,1,0,.52-.53A.52.52,0,0,0,413.24,122.89Z"/><path class="cls-13" d="M390.52,123.27a4.23,4.23,0,1,0,4.23-4.23A4.23,4.23,0,0,0,390.52,123.27Z"/><path class="cls-3" d="M392.65,123.27a2.1,2.1,0,1,0,2.1-2.09A2.1,2.1,0,0,0,392.65,123.27Z"/><path class="cls-10" d="M401.94,120.13h2.56a.44.44,0,0,0,.41-.29l.18-.57a.43.43,0,0,0-.41-.56h-2.93a.43.43,0,0,0-.4.56l.18.57A.43.43,0,0,0,401.94,120.13Z"/><path class="cls-22" d="M398.82,118.35h0a.11.11,0,0,0,.11-.12v-2.52a.11.11,0,0,0-.11-.11h0a.11.11,0,0,0-.11.11v2.52A.11.11,0,0,0,398.82,118.35Z"/><path class="cls-22" d="M398.4,118.35h0a.11.11,0,0,0,.11-.12v-2.52a.11.11,0,0,0-.11-.11h0a.11.11,0,0,0-.11.11v2.52A.11.11,0,0,0,398.4,118.35Z"/><path class="cls-22" d="M398,118.35h0a.11.11,0,0,0,.11-.12v-2.52a.11.11,0,0,0-.11-.11h0a.11.11,0,0,0-.11.11v2.52A.11.11,0,0,0,398,118.35Z"/><path class="cls-22" d="M397.56,118.35h0a.11.11,0,0,0,.11-.12v-2.52a.11.11,0,0,0-.11-.11h0a.11.11,0,0,0-.11.11v2.52A.11.11,0,0,0,397.56,118.35Z"/><path class="cls-23" d="M95.58,127.51h16.75s-5.85-6.82-8.37-6.83S95.58,127.51,95.58,127.51Z"/><path class="cls-24" d="M164.76,119.32h-1.39v-1a.67.67,0,0,1,.67-.68h0a.67.67,0,0,1,.68.68v1Z"/><path class="cls-25" d="M164.91,119.47h-1.69v-.17a.14.14,0,0,1,.15-.15h1.38a.15.15,0,0,1,.15.15v.17Z"/><path class="cls-26" d="M163.88,118.14c-.1.09-.23.12-.28.08s0-.17.08-.26.22-.12.27-.07,0,.16-.07.25Z"/><path class="cls-24" d="M174.25,119.32h-1.39v-1a.67.67,0,0,1,.67-.68h0a.67.67,0,0,1,.67.68v1Z"/><path class="cls-25" d="M174.4,119.47h-1.69v-.17a.15.15,0,0,1,.15-.15h1.38a.14.14,0,0,1,.15.15v.17Z"/><path class="cls-26" d="M173.37,118.14c-.09.09-.22.12-.27.08s0-.17.07-.26.23-.12.28-.07,0,.16-.08.25Z"/><polygon class="cls-27" points="172.51 123.58 173.56 123.58 173.56 127.51 172.51 127.51 172.51 123.58 172.51 123.58"/><path class="cls-25" d="M174.22,127.51v-.28a.32.32,0,0,0-.33-.32h-1.72a.32.32,0,0,0-.32.32v.28Z"/><polygon class="cls-27" points="164.06 123.58 165.1 123.58 165.1 127.51 164.06 127.51 164.06 123.58 164.06 123.58"/><path class="cls-28" d="M175,119.48H162.65a.16.16,0,0,0-.16.15v3.8a.16.16,0,0,0,.16.15H175a.15.15,0,0,0,.15-.15v-3.8a.15.15,0,0,0-.15-.15Z"/><polygon class="cls-24" points="174.4 123.58 173.13 123.58 172.27 119.48 173.54 119.48 174.4 123.58 174.4 123.58"/><polygon class="cls-24" points="171.37 123.58 170.11 123.58 169.25 119.48 170.53 119.48 171.37 123.58 171.37 123.58"/><polygon class="cls-24" points="168.36 123.58 167.09 123.58 166.24 119.48 167.5 119.48 168.36 123.58 168.36 123.58"/><polygon class="cls-24" points="165.35 123.58 164.08 123.58 163.22 119.48 164.49 119.48 165.35 123.58 165.35 123.58"/><path class="cls-25" d="M165.77,127.51v-.28a.32.32,0,0,0-.33-.32h-1.72a.32.32,0,0,0-.32.32v.28Z"/><path class="cls-24" d="M366.38,119.32H365v-1a.67.67,0,0,1,.67-.68h0a.67.67,0,0,1,.68.68v1Z"/><path class="cls-25" d="M366.53,119.47h-1.7v-.17a.15.15,0,0,1,.16-.15h1.38a.14.14,0,0,1,.14.15v.17Z"/><path class="cls-26" d="M365.5,118.14c-.1.09-.23.12-.28.08s0-.17.07-.26.23-.12.28-.07,0,.16-.07.25Z"/><path class="cls-24" d="M375.87,119.32h-1.39v-1a.67.67,0,0,1,.67-.68h0a.67.67,0,0,1,.67.68v1Z"/><path class="cls-25" d="M376,119.47h-1.69v-.17a.14.14,0,0,1,.15-.15h1.38a.15.15,0,0,1,.15.15v.17Z"/><path class="cls-26" d="M375,118.14a.26.26,0,0,1-.28.08c0-.06,0-.17.08-.26s.22-.12.28-.07,0,.16-.08.25Z"/><polygon class="cls-27" points="374.13 123.58 375.18 123.58 375.18 127.51 374.13 127.51 374.13 123.58 374.13 123.58"/><path class="cls-25" d="M375.83,127.51v-.28a.32.32,0,0,0-.32-.32h-1.72a.32.32,0,0,0-.32.32v.28Z"/><polygon class="cls-27" points="365.68 123.58 366.73 123.58 366.73 127.51 365.68 127.51 365.68 123.58 365.68 123.58"/><path class="cls-28" d="M376.59,119.48H364.27a.16.16,0,0,0-.16.15v3.8a.15.15,0,0,0,.16.15h12.32a.15.15,0,0,0,.15-.15v-3.8a.15.15,0,0,0-.15-.15Z"/><polygon class="cls-24" points="376.02 123.58 374.75 123.58 373.88 119.48 375.16 119.48 376.02 123.58 376.02 123.58"/><polygon class="cls-24" points="372.99 123.58 371.73 123.58 370.87 119.48 372.15 119.48 372.99 123.58 372.99 123.58"/><polygon class="cls-24" points="369.98 123.58 368.71 123.58 367.86 119.48 369.12 119.48 369.98 123.58 369.98 123.58"/><polygon class="cls-24" points="366.97 123.58 365.69 123.58 364.83 119.48 366.11 119.48 366.97 123.58 366.97 123.58"/><path class="cls-25" d="M367.39,127.51v-.28a.32.32,0,0,0-.33-.32h-1.72a.32.32,0,0,0-.32.32v.28Z"/><rect class="cls-29" x="81.17" y="150.48" width="337.66" height="1"/></svg>